<?xml version="1.0" encoding="utf-8"?>
<!-- Generator: Adobe Illustrator 16.0.0, SVG Export Plug-In . SVG Version: 6.00 Build 0)  -->
<!DOCTYPE svg PUBLIC "-//W3C//DTD SVG 1.1//EN" "http://www.w3.org/Graphics/SVG/1.1/DTD/svg11.dtd">
<svg version="1.1" id="Layer_1" xmlns="http://www.w3.org/2000/svg" xmlns:xlink="http://www.w3.org/1999/xlink" x="0px" y="0px"
	 width="960px" height="960px" viewBox="0 0 960 960" enable-background="new 0 0 960 960" xml:space="preserve">
<g>
	<path fill="#FFFFFF" d="M94.725,479.96c0,212.556,172.343,384.898,384.911,384.898c212.584,0,384.898-172.342,384.898-384.898
		c0-212.587-172.314-384.912-384.898-384.912C267.068,95.049,94.725,267.373,94.725,479.96z"/>
	<g>
		<path fill="#091C5A" d="M479.624,18.07c-255.075,0-461.841,206.815-461.841,461.891c0,255.125,206.767,461.891,461.841,461.891
			c255.051,0,461.88-206.766,461.88-461.891C941.504,224.885,734.675,18.07,479.624,18.07z M480.955,816.18
			c-186.117,0-337.008-150.894-337.008-336.995c0-186.142,150.891-336.985,337.008-336.985
			c186.106,0,336.984,150.843,336.984,336.985C817.938,665.286,667.061,816.18,480.955,816.18z"/>
		<path fill="#FFFFFF" d="M62.223,406.461l-0.715,1.793l-0.578,9.031l-1.01,7.941c-0.05,0.567-0.222,2.137,1.256,2.242
			c1.047,0.092,1.405-1.048,1.651-1.928c0.296-0.838,0.801-1.195,1.601-1.06c1.084,0.062,2.44,0.58,3.994,1.479
			c1.219,0.713,6.233,4.169,11.063,7.453c4.14,2.852,7.91,5.47,9.832,6.704c-0.949,0.487-2.205,1.027-2.205,1.027
			c-6.789,3.136-21.081,9.636-23.138,10.404c-0.506,0.173-1.972,0.771-2.724,0.697c-0.32-0.043-0.714-0.275-0.762-0.733
			c0-0.037-0.086-0.438-0.086-0.438c-0.186-1.09-0.286-2.032-1.283-2.112l-0.959,0.246l-0.655,1.573l-0.406,6.142L56.9,459.83
			l-0.8,6.713l-0.457,3.893c-0.209,2.07,0.812,2.403,1.22,2.417c0.333,0.048,1.417,0,1.602-1.764
			c0.097-0.832,0.616-2.107,1.331-3.18c1.107-1.525,3.486-3.368,6.481-4.982c4.718-2.557,24.295-12.105,25.564-12.55
			c2.613-0.812,4.423-1.464,8.808-1.045l6.9,0.683c0.113,0,8.353,1.048,8.353,1.048c1.701,0.252,3.734,0.88,3.845,2.42l0.05,2.846
			l0.343,1.762l0.84,0.42l0.997-0.296c0.518-0.437,0.691-1.275,0.766-2.083l0.443-6.307l0.295-4.299l0.444-3.895l1.009-8.981
			c0.1-0.992-0.013-1.693-0.344-2.144l-0.925-0.444c-0.37-0.024-1.403,0.067-1.552,1.908l-0.728,4.067
			c-0.405,1.862-1.663,2.595-4.298,2.488l-8.404-0.523l-6.9-0.646c-2.698-0.271-5.285-0.48-8.058-1.989
			c-3.362-1.825-22.016-15.421-25.159-18.537c-2.07-2.033-2.907-2.976-3.524-4.725c-0.542-1.289-0.714-2.815-0.641-3.487
			c0.197-2.114-0.937-2.377-1.33-2.384L62.223,406.461z"/>
		<path fill="#FFFFFF" d="M98.299,382.441c-21.426-6.789-20.823-19.844-18.542-27.032c1.822-5.727,5.605-10.256,10.915-13.011
			c6.85-3.536,15.745-3.904,25.06-0.922c9.513,3.005,15.796,7.386,18.729,13.041c2.785,5.36,1.799,10.504,0.999,13.079l0,0
			C130.948,381.825,115.658,387.924,98.299,382.441z M92.274,329.277c-7.775,4.017-13.664,11.681-16.99,22.159
			c-3.192,10.129-2.699,19.708,1.416,27.648c4.054,7.756,11.398,13.824,20.182,16.628c15.561,4.902,35.606-0.186,42.803-23.041l0,0
			c3.13-9.832,2.563-19.368-1.688-27.573c-4.226-8.072-11.766-14.158-21.242-17.182C107.871,325.064,99.419,325.544,92.274,329.277z
			"/>
		<path fill="#FFFFFF" d="M136.912,229.807l-3.352,5.821l-0.826,1.429l-1.614,2.501l-3.979,6.064
			c-0.53,0.898-0.984,1.736-0.826,2.451l0.556,0.763c0.812,0.517,1.589,0.172,2.291-0.975c0.604-0.985,1.651-2.635,2.611-3.362
			c1.394-1.005,2.859-1.06,7.27,1.577c0,0,26.12,15.314,31.713,18.615c-1.6,0.395-7.44,1.646-7.44,1.646l-17.718,3.863
			c-17.594,4.219-36.753,8.033-36.938,8.062l-1.159,0.203c-1.515,0.308-2.636,0.5-3.178,1.393c-0.149,0.259-0.21,0.494-0.21,0.783
			c0,1.176,1.615,2.15,2.304,2.594l42.31,26.999c5.644,3.581,7.354,5.028,7.354,6.476c0,0.167-0.061,0.37-0.073,0.542l-1.563,3.277
			l-0.468,1.7l0.517,0.739l1.071,0.209c0.679-0.186,1.159-0.837,1.602-1.546l3.881-6.733l0.714-1.196l1.257-2.001l4.449-6.807
			c0.431-0.628,1.392-2.243,0.098-3.037l-0.925-0.192l-1.342,1.257c-0.641,1.073-1.541,2.372-2.674,3.29
			c-0.875,0.691-2.673,1.029-8.772-2.476c0,0-27.032-15.763-29.471-17.15c0.629-0.123,1.283-0.228,1.283-0.228
			c5.187-0.979,16.028-3.037,26.119-5.434l15.476-3.677l18.874-4.547c1.382-0.331,2.86-0.764,3.476-1.774l0.222-1.158
			c-0.149-0.69-0.764-1.269-2.071-2.083l-45.032-28.873c-3.338-2.157-4.324-3.413-4.324-4.712c0-0.315,0.036-0.629,0.124-1.004
			l1.034-2.096c0.419-0.659,0.592-1.176,0.592-1.57c0-0.567-0.357-0.911-0.652-1.09C138.304,227.577,137.38,229.056,136.912,229.807
			z M153.162,304.919L153.162,304.919L153.162,304.919z"/>
		<path fill="#FFFFFF" d="M183.891,177.548c-2.255,1.405-5.298,3.414-8.932,7.295c-4.473,4.731-6.862,10.152-6.765,15.369
			c0.124,4.147,1.837,7.916,4.916,10.83c5.41,5.132,12.494,6.597,23.804,4.897l4.866-0.708c8.329-1.275,12.001,0.333,15.007,3.143
			c1.577,1.465,2.489,3.627,2.513,5.942c0.099,1.96-0.467,4.93-3.401,7.96c-2.303,2.44-7.183,6.087-13.725,2.766
			c-1.355-0.709-2.808-1.62-3.499-2.322c-1.269-1.195-2.144-0.838-2.599-0.333c-1.024,1.098,0.381,2.594,0.898,3.179
			c0.174,0.191,7.789,7.983,7.789,7.983c1.514,1.441,2.29,1.651,3.942,0.949c3.609-1.498,6.727-3.783,10.349-7.602
			c3.808-4.055,6.11-8.12,6.912-12.536c0.222-1.202,0.32-2.383,0.32-3.53c0-6.481-3.424-10.818-5.729-12.985
			c-5.976-5.688-12.715-7.023-25.835-4.99l-2.921,0.5c-9.092,1.484-12.024,0.565-14.438-1.695c-1.577-1.527-2.428-3.375-2.452-5.367
			c-0.086-2.364,0.974-4.796,3.116-7.016c3.438-3.682,6.666-3.843,8.772-3.646c2.699,0.259,4.78,1.675,5.2,2.056l1.651,0.857
			l0.974-0.437l0.43-0.942c-0.073-0.672-0.492-1.343-1.625-2.433l-6.186-6.21l-0.986-1.035
			C185.308,176.588,184.199,177.341,183.891,177.548z M208.705,244.5L208.705,244.5L208.705,244.5L208.705,244.5z"/>
		<path fill="#FFFFFF" d="M241.958,128.734l-0.702,0.789l-0.295,0.37c-0.012,0.024-2.55,2.538-2.55,2.538
			c0.025-0.018-16.843,12.592-16.843,12.592c-0.086,0.086-3.524,2.538-3.524,2.538l-6.481,4.626c-0.8,0.609-1.354,1.108-1.441,1.744
			l0.284,0.961l0.838,0.541l1.701-0.676l2.661-1.669c2.131-0.987,3.204-0.672,5.04,1.509c1.762,2.05,3.117,3.917,10.805,14.262
			l8.957,11.958c4.632,6.283,8.636,11.629,10.336,14.661c1.232,2.23,1.75,3.555,0.948,4.448l-2.143,1.982
			c-1.368,0.998-1.22,1.787-0.85,2.28l0.9,0.573l1.934-0.757l5.31-4.146l3.093-2.385l5.237-3.708l13.898-9.948
			c2.624-1.928,3.635-2.662,2.574-5.267c-0.678-1.689-3.572-6.778-4.829-8.392l-1.443-1.195l-0.948,0.253
			c-1.023,0.758-0.53,1.769-0.197,2.384c1.528,3.042,1.725,4.855,0.714,6.728c-1.108,1.97-3.917,4.084-5.631,5.36
			c-6.776,5.051-8.144,4.65-11.421,0.505l-5.79-7.707l-2.057-2.816l-4.005-5.397c0,0-0.024-0.042-0.074-0.123
			c1.973-1.509,8.305-6.086,9.573-6.887c2.724-1.577,4.055-0.973,5.028-0.197c-0.013-0.019,1.478,1.553,1.478,1.553l0.517,0.604
			c-0.025-0.025,0.9,0.542,0.9,0.542l1.108-0.284l0.518-0.875l-0.752-1.829l-3.055-4.713c-0.062,0-2.772-4.668-2.772-4.668
			l-0.445-0.746l-0.873-0.598l-0.961,0.259c-0.579,0.413-0.617,1.085-0.691,2.021c-0.085,1.047-0.924,1.971-2.292,3.167
			c-0.64,0.566-2.943,2.439-10.558,8.094c-0.048,0.031-0.048,0.013-0.073,0.031c-0.086-0.08-0.172-0.167-0.172-0.167l-12.791-17.218
			c0,0-0.023-0.104-0.122-0.153c1.686-1.221,8.574-6.129,9.757-6.777c3.476-2.058,4.51-1.719,5.643-0.974
			c0.813,0.492,1.689,1.479,2.071,1.958c0.911,1.258,1.725,1.048,2.279,0.642c0.431-0.333,0.85-0.963,0.296-2.07
			c0-0.038-2.106-3.376-2.106-3.376l-0.887-1.441c-0.038-0.012-2.341-4.079-2.341-4.079l-0.47-0.8l-0.986-0.647L241.958,128.734z
			 M242.02,130.792L242.02,130.792L242.02,130.792L242.02,130.792z M245.396,134.759L245.396,134.759L245.396,134.759z
			 M215.062,151.86L215.062,151.86L215.062,151.86z"/>
		<path fill="#FFFFFF" d="M293.052,100.094l-5.41,3.013l-3.621,2.033l-9.87,4.877c-0.776,0.402-2.415,1.259-1.749,2.454
			c0.467,0.923,1.305,1.047,2.5,0.444l2.673-1.072c1.158-0.308,2.389-0.228,4.029,2.538l8.452,15.812l6.949,13.227
			c3.868,7.361,6.886,13.172,8.168,16.498c0.913,2.34,0.913,3.399,0,4.089l-2.452,1.651c-1.49,0.788-1.44,1.608-1.133,2.18
			c0.32,0.598,1.048,1.159,2.785,0.266l5.89-3.284l3.474-1.922l3.51-1.761l8.292-4.151c1.885-0.987,1.516-2.096,1.319-2.416
			l-0.716-0.604l-1.712,0.358l-3.906,1.663c-1.946,0.721-2.907-0.049-4.14-1.854c-1.946-3.012-4.951-8.752-8.747-16.022
			c-0.111-0.223-7.047-13.43-7.047-13.43c-5.963-11.409-7.035-13.466-8.181-15.955c-0.529-1.195-0.8-2.107-0.8-2.828
			c0-0.856,0.369-1.466,1.144-2.095l2.021-1.324c0.887-0.417,1.331-0.979,1.331-1.589c0-0.248-0.099-0.457-0.222-0.714
			C295.246,98.985,293.644,99.842,293.052,100.094z M277.244,110.524L277.244,110.524L277.244,110.524z"/>
		<path fill="#FFFFFF" d="M428.544,58.838l-7.111,1.608l-2.352,0.513l-0.323,0.048l-9.3,1.614c-0.789,0.147-1.564,0.382-1.933,0.899
			l-0.199,0.986l0.567,0.863l1.837,0.136l2.856-0.328c2.317,0.02,3.166,0.807,3.857,3.519l3.622,17.574l2.071,10.411
			c1.75,8.785,2.786,15.918-0.653,21.069c-3.117,4.626-8.157,6.031-10.141,6.413c-2.981,0.591-6.567,0.918-10.632-1.257
			c-3.747-2.015-7.614-5.655-10.19-18.728l-2.291-11.625c-0.061-0.253-3.314-17.6-3.314-17.6c-0.37-2.895,0-3.994,1.761-4.645
			c0.013,0,2.219-0.715,2.219-0.715c1.625-0.309,1.835-1.171,1.699-1.787c-0.259-1.455-1.934-1.097-2.759-0.954l-6.002,1.342
			l-4.187,0.961l-4.388,0.758l-7.798,1.336c-0.95,0.21-1.664,0.45-2.008,0.979l-0.187,0.974l0.53,0.844l1.823,0.147l3.116-0.363
			c2.343,0.018,3.168,0.77,3.882,3.512c0.715,2.624,1.133,4.902,3.659,17.557l2.391,12.161c2.108,10.688,5.928,17.328,12.038,21.019
			c7.689,4.626,16.386,2.907,20.095,2.174c4.917-0.986,11.249-2.964,16.485-9.635c5.962-7.541,5.039-17.514,3.105-27.167
			l-1.713-8.877l-3.314-17.631c-0.432-2.877,0-3.924,1.723-4.596c0.013-0.036,2.231-0.72,2.231-0.72
			c0.555-0.116,2.168-0.401,1.91-1.811c-0.111-0.61-0.542-0.98-1.17-1.079L428.544,58.838z"/>
		<path fill="#FFFFFF" d="M470.149,55.192c-0.542,0.48-0.8,1.484-0.887,3.118l-2.87,50.082c-0.37,7.516-0.863,9.358-2.549,9.758
			l-3.599,0.248c-1.713-0.073-2.083,0.628-2.108,1.257l0.346,1.047c0.48,0.492,1.281,0.554,2.12,0.603l7.798,0.112h1.329
			l2.378,0.178l8.171,0.537c0.701,0,2.584,0.109,2.661-1.405l-0.32-0.9l-1.752-0.567c-1.206-0.043-2.795-0.185-4.137-0.715
			c-0.999-0.419-2.158-1.711-2.158-7.983c0-0.265,0-0.907,0-0.907s0.469-31.237,0.542-34.065c0.457,0.499,0.863,1.004,0.863,1.004
			c3.4,4.079,10.458,12.53,17.506,20.131l10.78,11.693l13.161,14.255c1.007,1.09,2.081,2.119,3.288,2.193
			c1.737,0.049,1.849-2.243,1.896-3.259l3.154-53.392c0.322-4.983,1.173-6,2.948-6.406l2.313-0.179l1.912-0.431l0.389-0.899
			c0.051-1.462-1.625-1.541-2.598-1.561l-6.714-0.098h-1.59l-2.958-0.184l-7.277-0.493c-1.259-0.03-1.998,0-2.54,0.493l-0.408,0.856
			c0,0.018,0,0.03,0,0.074c0,0.905,0.679,1.373,1.985,1.435c1.097,0.043,3.107,0.111,4.226,0.627c1.479,0.716,2.17,1.782,2.17,5.989
			c0,0.37,0,0.691-0.025,1.135c0,0-0.58,30.265-0.691,36.764c-1.083-1.232-5.063-5.704-5.063-5.704l-12.014-13.553
			c-12.294-13.275-24.983-28.146-25.097-28.275l-0.775-0.874c-0.987-1.233-1.737-2.058-2.76-2.107L470.149,55.192z"/>
		<path fill="#FFFFFF" d="M565.375,66.045l-0.526,0.686l0.131,1.151l1.517,0.814l2.687,0.997c1.062,0.53,1.96,1.368,1.342,4.521
			l-3.977,17.545l-3.41,14.49c-1.899,7.75-3.527,14.477-4.726,17.785c-0.8,2.377-1.526,3.16-2.709,3.122l-2.894-0.381l-1.801,0.085
			l-0.528,0.752l0.146,1.059l1.81,1.009l6.584,1.431l3.903,0.799l3.719,0.993l9.061,2.298c2.055,0.542,2.476-0.591,2.562-0.925
			l-0.149-0.886l-1.491-0.913l-4.041-1.28c-1.973-0.807-2.202-1.947-1.922-4.142c0.542-3.579,2.094-10.312,3.98-18.086l3.423-14.489
			l4.35-17.397c0.815-2.758,1.676-3.585,3.486-3.487l2.432,0.333l1.724-0.081l0.603-0.943c0.309-1.298-1.491-1.749-2.081-1.883
			l-6.087-1.282l-4.04-0.875l-10.647-2.823C566.521,65.763,565.869,65.763,565.375,66.045z M569.823,68.467L569.823,68.467
			L569.823,68.467z"/>
		<path fill="#FFFFFF" d="M612.76,77.394l-0.652,0.678l-0.1,1.035l1.074,0.942l2.781,1.534c2.234,1.773,3.156,3.011,3.111,7.91l0,0
			l-0.756,55.998c-0.072,4.534-0.111,6.049,1.354,6.678c1.457,0.602,2.49-0.396,5.941-3.61l0.875-0.783l20.5-19.3l8.503-7.854
			l9.891-9.295c4.165-3.974,5.828-4.756,6.977-5.009c1.576-0.295,3.081,0.353,3.791,0.672l1.728,0.209l0.714-0.758
			c0.583-1.3-1.131-2.052-1.635-2.261l-4.697-1.842l-2.785-1.047l-1.673-0.819l-6.37-2.962c-1.1-0.427-2.823-1.191-3.438,0.22
			c-0.099,0.197-0.111,0.365-0.111,0.512c0,0.911,1.118,1.43,1.542,1.583l2.734,1.588c0.245,0.211,0.318,0.438,0.318,0.698
			c0,0.197-0.073,0.369-0.096,0.479c-0.271,0.518-0.949,1.484-1.825,2.366l-19.465,19.688c0,0-10.006,10.04-11.521,11.629
			c0.111-2.395,1.65-39.855,1.65-39.855c0.137-4.326,0.441-5.958,0.703-6.526c0.258-0.523,0.543-0.769,1.008-0.88
			c0.668-0.149,1.889,0.295,2.811,0.69c1.615,0.651,2.23-0.062,2.402-0.561v-0.88c-0.172-0.579-0.787-1.023-1.836-1.467l-6.43-2.575
			l-3.258-1.257l-4.457-2.058l-6.775-3.012C614.152,77.394,613.426,77.129,612.76,77.394z"/>
		<path fill="#FFFFFF" d="M696.493,117.769l-0.262,0.959l1.176,1.418l2.461,1.922c1.678,1.713,1.701,2.815,0.234,5.236
			c-1.332,2.279-2.562,4.189-9.809,14.993l-8.352,12.371c-4.363,6.408-8.056,11.952-10.373,14.649
			c-1.701,1.911-2.762,2.786-3.896,2.331c0-0.05-2.598-1.369-2.598-1.369l-1.688-0.566l-0.787,0.566l-0.176,0.986l1.332,1.614
			l5.644,3.604l3.34,2.157l5.262,3.708l13.922,9.812c2.721,1.849,3.793,2.513,5.914,0.66c1.316-1.201,5.125-5.637,6.26-7.331
			l0.639-1.769l-0.557-0.812c-1.041-0.703-1.846,0.134-2.34,0.654c-2.328,2.427-3.941,3.202-6.072,2.869
			c-2.23-0.356-5.15-2.304-6.912-3.523c-4.328-2.908-6.023-4.553-6.023-6.456c0-1.165,0.664-2.439,1.775-4.178l5.418-8.088
			l1.898-2.828l3.719-5.532c0,0,0.086-0.061,0.125-0.148c1.834,1.257,8.453,5.828,9.623,6.814c1.639,1.379,2.115,2.512,2.115,3.443
			c0,0.425-0.096,0.825-0.244,1.177c0.012-0.025-0.959,1.921-0.959,1.921l-0.408,0.728c-0.457,0.664-0.318,1.429,0.443,1.934
			c1.193,0.806,2.084-0.519,2.475-1.097l3.414-4.467c0.012-0.017,3.477-4.146,3.477-4.146l0.605-0.67l0.244-1.028l-0.58-0.79
			c-0.605-0.381-1.258-0.208-2.131,0.02c-1.02,0.25-2.133-0.228-3.744-1.134c-1.074-0.584-5.15-3.247-11.197-7.349
			c0.057-0.086,0.133-0.234,0.133-0.234l11.988-17.759c0,0,0.051-0.057,0.096-0.136c1.715,1.183,8.613,6.042,9.623,6.905
			c2.352,2.039,2.92,3.092,2.92,4.165c0,0.272-0.061,0.585-0.173,0.881c-0.159,0.917-0.812,2.076-1.144,2.576l-0.43,1.52
			l0.589,0.844c0.456,0.315,1.208,0.487,2.094-0.4c0.025,0,2.526-3.091,2.526-3.091l0.985-1.344c0.013,0,3.068-3.542,3.068-3.542
			l0.676-0.694c0.679-1.097,0.038-1.67-0.255-1.861l-0.988-0.419l-0.404-0.148c-0.038,0-3.267-1.565-3.267-1.565
			c-1.405-0.8-15.896-10.621-17.581-11.729l-3.486-2.451l-6.48-4.57C698.675,117.541,697.271,116.512,696.493,117.769z
			 M729.697,139.576L729.697,139.576L729.697,139.576z"/>
		<path fill="#FFFFFF" d="M758.747,206.589c-1.721-0.261-2.61-0.721-4.927-3.044c-1.698-1.657-3.129-3.537-3.855-4.935
			c-0.108-0.24-0.108-0.326,0.442-0.851l18.177-18.277c0.293-0.289,0.332-0.258,0.576-0.153c0.813,0.438,2.229,1.822,3.289,2.791
			c2.119,2.166,3.414,5.271,3.414,8.309c0,3.751-1.734,7.399-5.225,10.893C765.305,206.664,760.844,206.958,758.747,206.589z
			 M767.57,178.547L767.57,178.547L767.57,178.547z M758.712,161.667l-0.886,0.425l-0.43,0.943l0.885,1.552l2.072,2.365
			c1.29,2.007,1.131,3.098-0.766,5.236l-12.466,12.751c-0.079,0.057-10.573,10.621-10.573,10.621
			c-5.507,5.491-10.251,10.226-12.999,12.445c-2.008,1.54-3.228,2.206-4.229,1.54c0-0.038-2.304-1.854-2.304-1.854l-1.564-0.85
			l-0.835,0.387l-0.398,0.942l1,1.811l5.039,4.83l2.438,2.286l1.925,1.983l6.736,7.023l1.813,0.962l0.937-0.401l0.421-0.882
			l-0.656-1.292l-2.619-3.062c-0.459-0.598-0.67-1.139-0.67-1.694c0-0.941,0.593-1.867,1.59-3.122
			c2.219-2.786,6.964-7.56,12.457-13.122c0,0,0.815-0.764,0.864-0.784c0.392,0.42,5.072,5.3,5.072,5.3
			c0.37,0.344,0.473,0.566,0.473,0.813c0,0.042,0,0.086,0,0.129l-1.074,6.77l-1.221,7.441c-0.762,4.972-1.277,8.761-1.277,11.822
			c0,2.095,0.232,3.85,0.71,5.464c0.777,2.585,2.097,4.51,5.472,7.811l5.704,5.705l1.728,0.979l0.959-0.437
			c0.223-0.209,0.383-0.542,0.383-0.924c0-0.375-0.16-0.787-0.615-1.232l-1.432-1.761c-0.727-1.109-2.523-3.77-2.523-9.907
			c0-0.147,0-0.314,0-0.503c0.121-6.223,1.035-14.053,2.176-23.965c0,0,0.326-3.142,0.459-4.078
			c9.869,0.911,16.24-0.851,21.191-5.805c4.521-4.496,4.814-10.435,4.312-12.899c-1.084-5.765-4.99-10.261-8.662-13.946
			l-8.674-8.255l-2.266-2.415l-5.768-5.958C759.906,162.173,759.353,161.667,758.712,161.667z"/>
		<path fill="#FFFFFF" d="M805.816,235.234c-6.102,4.238-9.018,10.867-9.648,22.265l-0.293,4.977
			c-0.498,8.402-2.785,11.667-6.166,14.04c-3.582,2.42-9.496,1.989-13.477-3.704c-1.896-2.808-4.424-8.317,0.162-14.045
			c0.934-1.194,2.154-2.403,2.955-2.921l1.121-1.39l-0.232-1.097c-0.865-1.244-2.652-0.172-3.314,0.221
			c-0.236,0.117-9.426,5.988-9.426,5.988c-1.32,0.924-1.823,1.595-1.823,2.625c0,0.307,0.013,0.64,0.099,1.022
			c0.736,3.832,2.316,7.373,5.322,11.709c3.154,4.566,6.74,7.609,10.854,9.334c7.973,3.24,14.266,0.217,17.299-1.922
			c6.814-4.7,9.475-11.015,10.176-24.223l0.115-2.968c0.414-9.253,1.87-11.916,4.627-13.8c1.787-1.257,3.747-1.725,5.745-1.355
			c2.317,0.395,4.483,1.965,6.195,4.479c2.896,4.146,2.402,7.375,1.787,9.365c-0.79,2.618-2.612,4.354-3.104,4.669
			c-1.517,1.029-1.357,1.94-0.95,2.513c0.95,1.324,2.601,0.167,3.611-0.542l7.329-4.756l1.195-0.708
			c1.035-0.764,0.566-1.941,0.407-2.391c-0.873-2.44-2.256-5.833-5.309-10.226C824.309,232.572,813.92,229.628,805.816,235.234z
			 M765.773,263.215L765.773,263.215L765.773,263.215z"/>
		<path fill="#FFFFFF" d="M852.94,283.514c-0.85,0.437-1.01,1.262-0.43,2.513l0.959,2.706c0.283,1.125,0.172,2.363-2.623,3.953
			l-16.066,7.99l-13.416,6.549c-7.454,3.635-13.403,6.492-16.745,7.632c-2.326,0.911-3.363,0.857-4.127-0.134l-1.527-2.447
			l-1.211-1.307l-0.934,0.106c-0.641,0.295-1.156,1.003-0.318,2.765l3.041,5.927l1.848,3.574l1.641,3.536l3.916,8.452l1.355,1.466
			l1.035-0.062l0.615-0.704l-0.258-1.723l-1.588-3.961c-0.669-1.99,0.109-2.89,1.97-4.102c3.056-1.806,8.894-4.676,16.338-8.299
			c0.124-0.081,13.578-6.572,13.578-6.572c11.594-5.655,13.713-6.685,16.15-7.731c2.686-1.121,3.844-1.004,4.917,0.461l1.306,2.114
			c0.543,1.208,1.33,1.596,2.23,1.134c1.244-0.566,0.418-2.242,0.16-2.785l-2.832-5.506l-1.91-3.69l-4.623-10.01
			C854.987,284.56,854.222,282.903,852.94,283.514z M854.802,288.435L854.802,288.435L854.802,288.435z"/>
		<path fill="#FFFFFF" d="M876.784,334.28c-0.52,0-8.566,0.654-10.008,1.048c-0.48,0.135-1.945,0.555-1.539,1.984
			c0.32,1.12,1.539,1.059,1.947,1.046l3.021,0.542c1.695,0.542,2.623,1.99,4.184,6.751c0,0,3.293,10.184,3.674,11.36
			c-1.279,0.394-32.659,9.609-32.659,9.609c-7.422,2.139-13.865,4.067-17.377,4.61c-2.647,0.54-3.929,0.355-4.445-0.655l-1.16-2.698
			l-0.959-1.466l-0.914-0.085c-0.638,0.172-1.329,0.773-0.774,2.697l2.071,6.395l1.17,3.746l1.058,3.837l2.44,9.024
			c0.615,2.009,1.775,1.867,2.132,1.763c0.294-0.106,0.877-0.401,0.877-1.362c0-0.277-0.038-0.568-0.163-0.986l-0.876-4.114
			c0-0.241-0.022-0.451-0.022-0.623c0-1.565,1.062-2.306,3.078-3.143c3.327-1.443,9.758-3.302,17.224-5.496
			c0,0,28.164-8.26,32.674-9.604c0.299,1.177,2.564,9.649,2.564,9.649c0.567,2.149,0.863,4.008,0.863,5.506
			c0,2.438-0.762,4.115-2.119,4.639c-0.037,0-0.924,0.333-0.924,0.333c-0.777,0.293-1.852,0.677-1.852,1.724
			c0,0.124,0,0.308,0.102,0.5c0.322,1.182,1.75,0.9,2.254,0.796c0.076,0,9.627-2.514,9.627-2.514c0.869-0.297,1.586-0.542,1.87-1.08
			l0.086-0.929l-0.433-0.887c-0.539-1.023-1.574-2.928-2.674-6.654l-9.484-32.237l-1.963-8.168c0-0.019-0.01-2.631-0.01-2.631
			l-0.025-1.232C878.964,334.126,877.597,334.231,876.784,334.28z"/>
		<path fill="#FFFFFF" d="M895.018,409.41c0.034,0.802-0.271,2.121-0.739,3.317c-0.803,1.692-2.811,3.979-5.446,6.121
			c-4.178,3.426-21.612,16.411-22.782,17.058c-2.414,1.344-4.053,2.274-8.44,2.679l0,0l-6.925,0.673l-8.426,0.487
			c-1.65,0.061-3.77-0.191-4.189-1.676l-0.615-2.777l-0.666-1.689l-0.861-0.241c-1.538,0.137-1.354,1.935-1.283,2.674l0.742,6.285
			l0.478,4.249l0.287,3.957l0.659,8.969c0.128,1.035,0.348,1.676,0.791,2.033l0.962,0.307l0.839-0.418l0.318-1.755l-0.045-4.133
			c0.07-1.88,1.18-2.835,3.758-3.285l8.291-0.979c0.1-0.048,6.973-0.702,6.973-0.702c2.746-0.247,5.283-0.469,8.352,0.5
			c3.572,1.06,24.42,11.027,28.129,13.479c2.39,1.655,3.438,2.433,4.362,3.98c0.774,1.183,1.195,2.678,1.256,3.333
			c0.21,2.131,1.38,2.179,1.714,2.155c0.912-0.085,1.329-0.886,1.208-2.349l-1.135-9.023l-0.48-7.942
			c-0.048-0.572-0.211-2.093-1.663-1.958c-1.023,0.119-1.183,1.289-1.307,2.187c-0.086,0.862-0.517,1.293-1.329,1.392
			c-1.062,0.076-2.515-0.134-4.19-0.762c-1.354-0.437-6.899-2.889-12.32-5.274c-4.535-2.014-8.773-3.88-10.865-4.754
			c0.85-0.612,1.873-1.344,1.873-1.344c5.713-4.017,19.021-13.48,20.952-14.599c0.755-0.457,1.877-1.109,2.505-1.171
			c0.306-0.044,0.762,0.122,0.86,0.567c0,0.018,0.185,0.417,0.185,0.417c0.383,1.048,0.679,1.923,1.664,1.843l0.889-0.481
			l0.331-1.612l-0.666-6.155l-0.404-2.852l-0.484-6.783l-0.204-3.88l-0.777-1.862l-0.924-0.271
			C895.916,407.377,894.833,407.613,895.018,409.41z"/>
		<path fill="#FFFFFF" d="M30.449,479.9c0,247.743,201.468,449.234,449.175,449.234c247.684,0,449.188-201.491,449.188-449.234
			c0-247.648-201.505-449.134-449.188-449.134C231.917,30.766,30.449,232.252,30.449,479.9z M36.104,479.9
			c0-244.518,198.954-443.46,443.521-443.46c244.576,0,443.497,198.942,443.497,443.46c0,244.603-198.921,443.555-443.497,443.555
			C235.058,923.455,36.104,724.503,36.104,479.9z"/>
		<g>
			<path fill="#091C5A" d="M259.515,529.87c9.45,43.405,28.399,94.134,66.15,142.946l153.528-153.528l153.961,154.047
				c38.008-48.952,57.054-99.872,66.532-143.414c-71.239-13.983-144.831-21.389-220.149-21.389
				C404.221,508.532,330.679,515.938,259.515,529.87z"/>
			<path fill="#091C5A" d="M709.22,266.669c0,0-132.832,4.518-229.596-74.312c-96.779,78.83-229.657,74.312-229.657,74.312
				s0,108.12,0,165.3c0,17.417,0.159,47.61,6.824,84.201c72.077-14.133,146.53-21.6,222.746-21.6
				c76.315,0,150.807,7.467,222.882,21.623c6.629-36.592,6.801-66.777,6.801-84.225C709.22,374.79,709.22,266.669,709.22,266.669z"
				/>
			<path fill="#091C5A" d="M362.774,713.87c30.149,28.73,68.343,55.763,116.763,78.948h0.197
				c48.149-23.074,86.208-49.925,116.283-78.519L479.193,597.486L362.774,713.87z"/>
			<path fill="#FFFFFF" d="M325.665,672.816c10.78,13.923,23.063,27.659,37.109,41.054l116.419-116.384L596.018,714.3
				c14.021-13.367,26.367-27.08,37.137-40.965L479.193,519.288L325.665,672.816z"/>
			<path fill="#FFFFFF" d="M256.792,516.171c0.839,4.461,1.713,9.043,2.724,13.699c71.164-13.933,144.706-21.338,220.022-21.338
				c75.318,0,148.91,7.405,220.149,21.389c1.057-4.659,1.945-9.229,2.732-13.727c-72.075-14.156-146.566-21.623-222.882-21.623
				C403.322,494.571,328.869,502.038,256.792,516.171z"/>
		</g>
		<g>
			<path fill="#FFFFFF" d="M289.381,391.535c0,0,5.322,0.46,10.152-2.039c3.189-1.62,8.266-4.8,11.236-1.824v-31.178
				c-1.455-1.196-3.708-1.423-8.796,0.764c0,0-6.79,2.957-12.592,3.393c0,0-1.37,0.074-1.431,1.805l-0.431,26.534
				C287.52,388.99,287.212,391.651,289.381,391.535z"/>
			<path fill="#FFFFFF" d="M325.419,389.497c4.83,2.499,10.151,2.039,10.151,2.039c2.156,0.116,1.836-2.545,1.836-2.545
				l-0.457-26.534c-0.012-1.731-1.404-1.805-1.404-1.805c-5.828-0.437-12.554-3.393-12.554-3.393
				c-5.041-2.187-7.369-1.96-8.81-0.764v31.178C317.176,384.696,322.202,387.877,325.419,389.497z"/>
			<path fill="#FFFFFF" d="M346.217,399.74l-1.627-29.6c-0.161-1.681-0.962-2.891-0.962-2.891s-1.441-2.229-2.267-2.975
				c-0.185-0.166-0.53-0.252-0.776-0.018c-0.407,0.393-0.295,1.38-0.295,1.38l0.616,26.853c0,0,0.184,2.569-1.539,2.87
				c0,0-5.558,1.521-13.283-1.194c0,0-4.003-1.676-5.827-2.631c-1.355-0.721-5.975-2.322-7.762,3.671
				c-1.848-5.994-6.456-4.393-7.773-3.671c-1.874,0.955-5.866,2.631-5.866,2.631c-7.675,2.716-13.256,1.194-13.256,1.194
				c-1.724-0.301-1.577-2.87-1.577-2.87l0.639-26.853c0,0,0.063-0.987-0.307-1.38c-0.223-0.235-0.53-0.148-0.715,0.018
				c-0.863,0.746-2.341,2.975-2.341,2.975s-0.788,1.209-0.937,2.891l-1.602,29.6c0,0-0.209,3.055,2.402,2.785l23.632-3.413
				c0,0,2.871-0.697,3.549,1.203c0,0,0.788,2.273,4.113,2.309l0,0h0.038h0.038l0,0c3.3-0.036,4.053-2.309,4.053-2.309
				c0.702-1.899,3.609-1.203,3.609-1.203l23.62,3.413C346.401,402.795,346.217,399.74,346.217,399.74z"/>
		</g>
		<path fill="#FFFFFF" d="M479.624,478.802c-59.446,0-107.67-48.13-107.67-107.45c0-59.292,48.224-107.387,107.67-107.387
			c59.423,0,107.634,48.095,107.634,107.387C587.258,430.672,539.047,478.802,479.624,478.802z M479.537,316.396
			c-30.407,0-55.023,24.63-55.023,55.019c0,30.372,24.616,55.025,55.023,55.025c30.333,0,55.039-24.654,55.039-55.025
			C534.576,341.026,509.87,316.396,479.537,316.396z"/>
		<path fill="#FFFFFF" d="M432.227,690.757c-1.76,1.281-10.669,7.119-10.966,7.33c-0.53,0.295-0.813,0.752-0.813,1.242
			c0,0.645,0.444,1.232,0.985,1.232l0.899-0.295c0.038,0,1.457-0.629,1.457-0.629c1.07-0.516,3.299-1.525,3.817-1.564
			c0.025,0.15,0.05,1,0.05,1l0.048,6.244v7.629l-0.186,10.682c-0.135,1.417-0.332,1.688-1.354,1.946l-3.698,0.31
			c-0.505,0-1.035,0.404-1.035,1.169c0,0.491,0.26,1.071,1.456,1.071l5.901-0.096l2.291-0.029l2.071,0.029l5.889,0.096
			c1.17,0,1.442-0.58,1.442-1.071c0-0.765-0.555-1.169-1.084-1.169l-3.018-0.31c-1.012-0.21-1.248-0.472-1.369-1.946l-0.186-10.682
			v-8.822l0.197-11.754l0.013-0.701c0-1.543-0.862-1.643-1.158-1.643L432.227,690.757z"/>
		<path fill="#FFFFFF" d="M453.17,718.487c0-4.617,2.984-7.219,4.991-8.465c3.955,2.305,7.368,4.424,7.368,8.675
			c0,3.859-2.488,6.556-6.074,6.556C455.918,725.253,453.17,722.286,453.17,718.487z M448.281,699.329
			c0,4.461,3.29,7.049,6.221,8.721c-5.088,2.395-8.106,6.237-8.106,10.711l0,0c0,6.122,4.991,10.051,12.679,10.051
			c8.809,0,13.368-5.678,13.368-11.283c0-5.756-4.634-8.824-7.911-10.646c2.18-1.059,6.259-3.744,6.259-8.855
			c0-4.879-4.165-8-10.472-8C451.471,690.026,448.281,695.62,448.281,699.329z M454.613,698.382c0-2.307,1.344-4.99,5.15-4.99
			c2.255,0,4.56,1.574,4.56,5.025c0,3.736-2.107,5.594-3.957,6.504C456.142,702.509,454.613,700.808,454.613,698.382z"/>
		<path fill="#FFFFFF" d="M486.241,718.487c0-4.617,2.979-7.219,4.939-8.465c4.015,2.305,7.38,4.424,7.38,8.675
			c0,3.859-2.488,6.556-6.025,6.556C489.01,725.253,486.241,722.286,486.241,718.487z M481.337,699.329
			c0,4.461,3.288,7.049,6.224,8.721c-5.065,2.395-8.072,6.237-8.072,10.711c0,6.122,4.952,10.051,12.676,10.051
			c8.738,0,13.333-5.678,13.333-11.283c0-5.756-4.668-8.824-7.922-10.646c2.218-1.059,6.233-3.744,6.233-8.855
			c0-4.879-4.089-8-10.472-8C484.541,690.026,481.337,695.62,481.337,699.329z M487.669,698.382c0-2.307,1.341-4.99,5.137-4.99
			c2.308,0,4.586,1.574,4.586,5.025c0,3.736-2.106,5.594-3.993,6.504C489.221,702.509,487.669,700.808,487.669,698.382z"/>
		<path fill="#FFFFFF" d="M532.247,690.569l-3.133,0.262h-11.727c-1.259,0-1.492,0.752-1.553,1.207l-1.121,12.629
			c-0.038,0.541,0.086,1.465,1.443,1.697c3.237,0.396,11.504,3.182,11.504,10.635c0,5.979-3.869,8.094-7.192,8.094
			c-3.919,0-5.806-1.883-5.806-5.727c0-1.309-0.688-1.529-1.106-1.529c-0.911,0-1.149,1.096-1.232,1.428
			c0,0.051-0.186,5.494-0.186,5.494v0.641c0,1.035,0.087,1.912,1.294,2.479h0.038c1.157,0.603,2.954,0.934,4.755,0.934
			c11.309,0,16.398-7.329,16.398-14.129c0-8.168-8.008-12.496-15.758-13.875c0.124-0.898,0.434-3.744,0.528-4.621
			c1.074,0,8.082,0,8.082,0c3.524,0,3.524,1.002,3.524,1.926c0,1.229,0.927,1.316,1.083,1.316c0.631,0,1.074-0.453,1.16-1.133
			l0.679-6.211c0-0.492,0-1.627-1.16-1.627L532.247,690.569z"/>
		<path fill="#FFFFFF" d="M91.733,588.568c0,7.475,6.061,13.59,13.602,13.59c7.49,0,13.588-6.115,13.588-13.59
			c0-7.518-6.098-13.614-13.588-13.614C97.794,574.954,91.733,581.051,91.733,588.568z"/>
		<path fill="#FFFFFF" d="M866.63,588.568c0,7.475-6.086,13.59-13.615,13.59c-7.502,0-13.588-6.115-13.588-13.59
			c0-7.518,6.086-13.614,13.588-13.614C860.544,574.954,866.63,581.051,866.63,588.568z"/>
		<g>
			<path fill="#FFFFFF" d="M660.034,383.773h-32.229c0,0-1.943-0.26-1.135,1.773l2.244,4.491c0,0,0.395,1.048,1.748,1.048h26.59
				c1.367,0,1.772-1.048,1.772-1.048l2.307-4.577C661.896,383.611,660.034,383.773,660.034,383.773z"/>
			<path fill="#FFFFFF" d="M654.244,395.083h-20.65c0,0-2.08-0.184-1.28,1.639l1.366,2.906c0,0,0.459,1.122,1.801,1.122h16.743
				c1.44,0,1.801-0.972,1.801-0.972l1.625-3.204C656.401,394.899,654.244,395.083,654.244,395.083z"/>
			<path fill="#FFFFFF" d="M651.583,406.541c0.898-2.053-1.218-1.933-1.218-1.933h-12.791c0,0-2.094-0.12-1.242,1.933l4.152,8.686
				v11.12c0,1.251,0.959,2.298,2.18,2.298h2.463c1.182,0,2.167-1.047,2.167-2.298v-11.12L651.583,406.541z"/>
			<path fill="#FFFFFF" d="M642.135,379.441c0,0,11.766,0.709,17.495-4.695c2.574-2.364,3.855-5.654,3.301-9.318
				c-0.529-3.746-4.261-8.587-8.043-12.297c0,0-5.351-5.668-4.436-12.943c0.146-1.029-1.122-1.886-3.158-0.646
				c0,0-18.712,12.677-14.868,27.647c0,0-5.396-6.055-0.529-14.33c0.207-0.418-0.125-1.403-1.801-0.134
				c-1.699,1.206-9.389,9.29-2.352,19.7C627.744,372.425,631.906,378.535,642.135,379.441z"/>
		</g>
		<g>
			<g>
				<path fill="#FFFFFF" d="M501.419,836.374c0,0.787,0,20.477,0,20.477h-5.42c0,0,0-19.689,0-20.477c-0.752,0-13.158,0-13.897,0
					c0,0.455,0,1.229,0,1.711l0,0c1.391,0,2.709,2.333,2.709,4.844c0,0,0,24.531,0,44.17c-6.775,0-28.719,0-28.719,0v-39.523
					c0,0,18.333,0,19.086,0c0-0.717,0-8.627,0-9.293c-0.753,0-33.044,0-33.796,0c0,0.434,0,1.173,0,1.629l0,0
					c1.393,0,2.748,2.339,2.748,4.879c0,0,0,50.833,0,51.646c0.666,0,32.427,0,40.682,0c0,8.467,0,14.541,0,14.786
					c0.752,0,10.449,0,11.188,0c0-0.765,0-45.068,0-45.068h5.42c0,0,0,44.304,0,45.068c0.743,0,11.252,0,12.014,0
					c0-0.765,0-74.061,0-74.848l0,0C513.433,836.374,502.206,836.374,501.419,836.374z"/>
			</g>
			<g>
				<path fill="#FFFFFF" d="M819.749,724.356c-9.586-7.938-45.55-37.789-46.079-38.211h-0.039c0,0-37.06,44.639-37.589,45.292
					c0.58,0.456,6.632,5.481,7.195,5.988c0.507-0.666,29.938-36.124,29.938-36.124s30.188,25.06,38.874,32.268
					c-3.241,3.958-5.841,7.122-5.841,7.122s-19.699-16.3-20.279-16.841c-0.504,0.611-6.861,8.275-7.33,8.843
					c0.59,0.493,20.279,16.793,20.279,16.793l-3.941,4.72c0,0-19.639-16.277-20.27-16.78c-0.469,0.593-8.008,9.671-8.516,10.241
					c0.357,0.319,0.902,0.797,1.26,1.067h0.035c0.889-1.083,3.562-0.566,5.496,1.026l15.203,12.612c0,0-8.043,9.773-8.588,10.342
					c0.555,0.49,6.641,5.52,7.221,5.975c0.492-0.631,44.253-53.374,44.785-54.001c-0.566-0.421-6.638-5.484-7.208-5.991
					C824.21,718.968,822.298,721.263,819.749,724.356z"/>
			</g>
			<g>
				<path fill="#FFFFFF" d="M341.78,809.75c-0.308,0.748-30.912,67.269-31.271,68.048c0.677,0.279,10.215,4.715,10.904,5.012
					c0.295-0.773,30.951-67.321,31.282-68.034h-0.061C352.635,814.775,342.495,810.068,341.78,809.75z"/>
				<path fill="#FFFFFF" d="M325.196,802.121c-0.209,0.407-0.516,1.073-0.714,1.529h0.013c1.281,0.566,1.478,3.264,0.431,5.58
					l-5.803,12.628c0,0-10.719-4.927-11.421-5.235c-0.309,0.641-3.572,7.811-3.881,8.477c0.69,0.322,11.409,5.235,11.409,5.235
					s-18.507,40.219-18.851,40.93c0.677,0.297,8.981,4.152,9.659,4.486c0.32-0.752,30.912-67.321,31.27-68.048l-0.024-0.025
					C337.284,807.678,325.897,802.416,325.196,802.121z"/>
				<path fill="#FFFFFF" d="M293.915,823.054l-0.37-0.739l0.257-0.207c8.342-6.322,14.527-14.098,18.925-23.648l0,0
					c-0.677-0.342-15.068-6.959-15.771-7.266c-0.161,0.395-0.53,1.109-0.691,1.504l0,0c0.161,0.111,3.093,2.391,0.542,7.92v0.012
					c-0.16,0.369-8.613,18.817-33.979,27.132c0.307,0.713,2.624,6.605,2.845,7.122h0.025c0.099,0,8.5-1.023,19.935-7.479
					l0.382-0.232l0.21,0.404c1.699,3.499,4.288,8.799,6.751,22.485c1.035-0.542,9.315-5.271,9.807-5.545
					C301.468,838.824,298.312,831.212,293.915,823.054z"/>
			</g>
			<g>
				<path fill="#FFFFFF" d="M632.24,867.729c0.717-0.359,45.216-21.709,45.216-21.709s6.653,13.848,6.963,14.54
					c0.717-0.312,10.178-4.878,10.854-5.19c-0.344-0.676-10.666-22.285-11.039-22.977c-0.738,0.357-55.308,26.541-56.069,26.887
					C628.471,859.929,631.906,867.077,632.24,867.729z"/>
				<path fill="#FFFFFF" d="M662.896,787.879c-0.691,0.357-12.616,6.039-13.308,6.371c0.186,0.416,0.542,1.082,0.727,1.529
					l0.039-0.041c1.229-0.625,3.46,0.961,4.509,3.24c0,0,15.439,32.134,15.783,32.822c0.653-0.306,10.15-4.879,10.816-5.197
					c-0.332-0.688-5.902-12.311-5.902-12.311s9.955-4.732,10.66-5.062c-0.322-0.65-3.34-6.961-3.633-7.592
					c-0.73,0.301-10.625,5.115-10.625,5.115S663.228,788.615,662.896,787.879z"/>
				<path fill="#FFFFFF" d="M613.676,839.49c4.471,9.366,16.742,12.811,27.35,7.775c10.608-5.114,15.548-16.841,11.064-26.271
					c-2.295-4.669-6.555-7.923-11.645-9.276c4.659-2.215,7.861-3.77,8.047-3.891c-0.31-0.656-3.697-7.754-4.006-8.426
					c-0.736,0.344-15.127,7.291-15.127,7.291s-2.453-5.09-2.764-5.717l0,0c0,0-12.564,6.014-13.268,6.357
					c0.184,0.408,0.52,1.096,0.727,1.517v-0.038c1.074-0.504,2.982,0.701,4.164,2.674l0.271,0.417c0,0-15.453,7.396-16.176,7.775
					c0.309,0.644,3.719,7.75,4.031,8.378c0.207-0.061,3.104-1.491,7.33-3.461C611.543,829.351,611.396,834.71,613.676,839.49z
					 M637.613,840.144c-5.223,2.463-11.619,0.099-14.217-5.359c-2.586-5.386-0.471-11.839,4.768-14.331
					c5.197-2.498,11.568-0.131,14.155,5.277C644.907,831.173,642.785,837.604,637.613,840.144z"/>
			</g>
			<g>
				<path fill="#FFFFFF" d="M162.391,731.438L162.391,731.438c0,0-9.167-10.497-9.661-11.089c-0.344,0.273-0.922,0.777-1.257,1.096
					h0.013c0.913,1.049-0.013,3.601-1.909,5.273c0,0-12.802,11.153-13.355,11.609c0.531,0.625,37.135,42.614,37.652,43.233
					c0.566-0.48,6.518-5.682,7.072-6.137c-0.555-0.615-29.804-34.143-29.804-34.143S161.811,731.932,162.391,731.438z"/>
				<path fill="#FFFFFF" d="M185.183,734.073c3.44,3.945,10.116,11.605,10.116,11.605s-14.07,12.298-14.673,12.817
					c0.505,0.592,7.405,8.498,7.899,9.027c0.614-0.529,40.127-35.003,40.694-35.519c-0.444-0.593-9.13-10.522-9.649-11.128
					c-0.345,0.3-0.911,0.804-1.256,1.112h0.05c0.899,1.02-0.05,3.585-1.946,5.283l-2.144,1.874c0,0-9.056-10.362-11.101-12.728
					c0.604-6.014-1.282-12.482-5.767-17.631c-8.169-9.35-21.795-10.791-30.419-3.314c-8.577,7.479-8.946,21.217-0.789,30.543
					C171.249,731.833,178.434,734.618,185.183,734.073z M207.237,735.28l-4.902,4.265c0,0-4.165-4.803-7.614-8.761
					c0.64-0.417,1.268-0.876,1.86-1.418c1.06-0.946,1.996-1.932,2.833-3.043C202.766,730.208,207.237,735.28,207.237,735.28z
					 M174.465,704.011c5.051-4.348,12.332-4.162,16.398,0.471c4.017,4.643,3.254,11.938-1.748,16.31
					c-5.002,4.337-12.372,4.155-16.412-0.478C168.673,715.68,169.487,708.376,174.465,704.011z"/>
			</g>
		</g>
	</g>
</g>
</svg>
