<svg xmlns="http://www.w3.org/2000/svg" viewBox="0 0 49489 409" width="49489" height="409"><path d="M353.495 212.919c0 30.555-16.666 58.316-40.985 78.8-25.852 21.762-66.156 25.733-98.62 25.733-29.993 0-58.572-1.943-86.333-20.859-30.624-20.859-53.272-50.631-53.255-83.674 0-29.926 12.696-63.992 38.923-84.34 29.022-22.529 73.33-29.805 106.459-29.805 33.913 0 74.983 14.485 101.177 37.968 22.443 20.178 32.634 47.069 32.634 76.177zM761.958 213.128c0 30.555-15.694 56.888-40.013 77.372-25.852 21.762-66.711 24.984-99.175 24.984-29.994 0-57.596-1.418-86.264-19.464-31.175-19.747-52.925-50.028-52.908-83.071 0-29.926 13.292-62.234 39.519-82.584 29.022-22.529 71.87-29.983 104.996-29.983 33.913 0 73.762 13.591 99.954 37.074 22.447 20.178 33.891 46.562 33.891 75.672zM1170.538 213.292c0 30.555-14.933 55.77-39.252 76.254-25.852 21.762-67.147 24.4-99.611 24.4-29.993 0-56.832-1.009-86.208-18.374-31.607-18.878-52.655-49.557-52.638-82.6 0-29.926 13.758-60.859 39.985-81.21 29.022-22.529 70.728-30.122 103.853-30.122 33.913 0 72.806 12.892 98.996 36.375 22.451 20.178 34.875 46.165 34.875 75.277zM1579.18 213.432c0 30.555-14.284 54.815-38.603 75.299-25.852 21.762-67.518 23.9-99.982 23.9-29.993 0-56.18-.658-86.162-17.441-31.976-18.135-52.423-49.155-52.406-82.199 0-29.925 14.156-59.683 40.383-80.036 29.022-22.529 69.752-30.241 102.876-30.241 33.913 0 71.99 12.295 98.179 35.778 22.453 20.178 35.715 45.827 35.715 74.94zM1987.865 213.554c0 30.555-13.714 53.978-38.033 74.462-25.852 21.762-67.844 23.46-100.308 23.46-29.993 0-55.606-.351-86.121-16.622-32.299-17.483-52.22-48.802-52.202-81.845 0-29.926 14.505-58.652 40.732-79.006 29.022-22.529 68.896-30.345 102.018-30.345 33.913 0 71.273 11.77 97.46 35.253 22.457 20.178 36.454 45.529 36.454 74.643zM2396.584 213.664c0 30.555-13.205 53.229-37.524 73.713-25.852 21.762-68.135 23.069-100.599 23.069-29.993 0-55.095-.076-86.085-15.892-32.588-16.901-52.038-48.486-52.02-81.53 0-29.925 14.817-57.731 41.044-78.086 29.022-22.529 68.131-30.438 101.252-30.438 33.913 0 70.634 11.302 96.82 34.785 22.459 20.178 37.112 45.264 37.112 74.379zM2805.331 213.762c0 30.555-12.747 52.556-37.066 73.041-25.852 21.762-68.396 22.716-100.86 22.716-29.994 0-54.636.171-86.052-15.235-32.849-16.377-51.875-48.202-51.858-81.246 0-29.925 15.099-56.902 41.325-77.258 29.023-22.529 67.443-30.522 100.563-30.522 33.914 0 70.059 10.881 96.244 34.364 22.46 20.178 37.704 45.025 37.704 74.14zM3214.102 213.852c0 30.555-12.332 51.946-36.651 72.43-25.852 21.762-68.634 22.397-101.098 22.397-29.993 0-54.219.394-86.022-14.639-33.084-15.903-51.727-47.946-51.71-80.989 0-29.926 15.353-56.152 41.58-76.509 29.022-22.529 66.819-30.597 99.939-30.597 33.913 0 69.536 10.499 95.721 33.982 22.462 20.178 38.241 44.808 38.241 73.925zM3622.894 213.933c0 30.555-11.955 51.392-36.274 71.876-25.852 21.762-68.85 22.106-101.314 22.106-29.993 0-53.839.598-85.995-14.098-33.297-15.471-51.592-47.711-51.575-80.755 0-29.925 15.584-55.469 41.811-75.827 29.022-22.529 66.253-30.666 99.371-30.666 33.913 0 69.063 10.152 95.246 33.635 22.464 20.178 38.73 44.611 38.73 73.729zM4031.703 214.007c0 30.555-11.61 50.886-35.928 71.37-25.853 21.762-69.047 21.842-101.511 21.842-29.994 0-53.494.783-85.971-13.605-33.493-15.077-51.47-47.498-51.452-80.541 0-29.926 15.795-54.847 42.022-75.205 29.022-22.529 65.735-30.73 98.853-30.73 33.913 0 68.63 9.836 94.813 33.319 22.465 20.178 39.174 44.432 39.174 73.55zM4440.53 214.075c0 30.555-11.296 50.423-35.615 70.907-25.852 21.762-69.226 21.6-101.69 21.6-29.994 0-53.178.953-85.948-13.153-33.671-14.718-51.358-47.303-51.34-80.347 0-29.925 15.988-54.278 42.215-74.637 29.022-22.529 65.263-30.787 98.38-30.787 33.913 0 68.235 9.547 94.416 33.03 22.467 20.178 39.582 44.268 39.582 73.387zM4849.371 214.137c0 30.555-11.009 50.001-35.327 70.485-25.853 21.762-69.391 21.379-101.855 21.379-29.994 0-52.889 1.108-85.927-12.741-33.835-14.389-51.256-47.126-51.238-80.169 0-29.926 16.164-53.759 42.391-74.118 29.022-22.529 64.831-30.839 97.948-30.839 33.913 0 67.874 9.282 94.055 32.765 22.468 20.178 39.953 44.118 39.953 73.238zM5258.226 214.193c0 30.555-10.746 49.616-35.064 70.1-25.853 21.762-69.541 21.176-102.005 21.176-29.994 0-52.626 1.249-85.909-12.364-33.983-14.089-51.162-46.962-51.144-80.006 0-29.925 16.325-53.283 42.552-73.643 29.022-22.529 64.437-30.888 97.553-30.888 33.913 0 67.544 9.041 93.724 32.524 22.47 20.178 40.293 43.981 40.293 73.101zM5667.094 214.245c0 30.555-10.507 49.262-34.825 69.746-25.853 21.762-69.678 20.992-102.142 20.992-29.994 0-52.385 1.379-85.891-12.019-34.12-13.815-51.077-46.814-51.059-79.858 0-29.925 16.472-52.849 42.699-73.21 29.022-22.529 64.077-30.931 97.192-30.931 33.913 0 67.242 8.821 93.422 32.304 22.471 20.178 40.604 43.855 40.604 72.976zM6075.973 214.292c0 30.555-10.288 48.941-34.606 69.425-25.853 21.762-69.803 20.823-102.267 20.823-29.994 0-52.165 1.497-85.876-11.705-34.244-13.564-50.998-46.678-50.98-79.722 0-29.925 16.606-52.453 42.833-72.814 29.022-22.529 63.747-30.972 96.863-30.972 33.913 0 66.967 8.62 93.146 32.103 22.471 20.178 40.887 43.741 40.887 72.862zM6484.863 214.335c0 30.555-10.088 48.648-34.406 69.132-25.853 21.762-69.918 20.67-102.382 20.67-29.994 0-51.965 1.604-85.861-11.42-34.357-13.336-50.927-46.554-50.91-79.598 0-29.925 16.729-52.093 42.956-72.454 29.022-22.529 63.448-31.008 96.563-31.008 33.913 0 66.716 8.436 92.895 31.919 22.472 20.178 41.145 43.637 41.145 72.759zM6893.763 214.374c0 30.555-9.907 48.382-34.225 68.866-25.853 21.762-70.021 20.53-102.485 20.53-29.994 0-51.783 1.702-85.849-11.159-34.459-13.129-50.862-46.443-50.844-79.487 0-29.925 16.839-51.765 43.066-72.126 29.022-22.529 63.176-31.041 96.29-31.041 33.913 0 66.489 8.269 92.668 31.752 22.473 20.178 41.379 43.543 41.379 72.665zM7302.672 214.409c0 30.555-9.743 48.141-34.061 68.625-25.853 21.762-70.115 20.404-102.579 20.404-29.994 0-51.618 1.791-85.836-10.924-34.553-12.941-50.804-46.341-50.787-79.385 0-29.925 16.941-51.468 43.168-71.83 29.022-22.529 62.929-31.071 96.043-31.071 33.913 0 66.283 8.119 92.461 31.602 22.474 20.178 41.591 43.457 41.591 72.579zM7711.591 214.441c0 30.555-9.596 47.924-33.914 68.408-25.853 21.762-70.199 20.29-102.663 20.29-29.994 0-51.47 1.87-85.826-10.712-34.637-12.772-50.751-46.249-50.734-79.293 0-29.925 17.031-51.201 43.258-71.564 29.022-22.529 62.708-31.097 95.821-31.097 33.913 0 66.098 7.982 92.275 31.465 22.475 20.178 41.783 43.38 41.783 72.503zM8120.518 214.469c0 30.555-9.463 47.729-33.781 68.213-25.853 21.762-70.275 20.189-102.739 20.189-29.994 0-51.337 1.942-85.817-10.522-34.712-12.621-50.704-46.167-50.686-79.211 0-29.925 17.112-50.962 43.339-71.324 29.022-22.529 62.508-31.122 95.622-31.122 33.913 0 65.93 7.861 92.108 31.344 22.475 20.178 41.954 43.311 41.954 72.433zM8529.452 214.495c0 30.555-9.344 47.555-33.662 68.039-25.853 21.762-70.343 20.098-102.807 20.098-29.994 0-51.218 2.005-85.808-10.353-34.779-12.486-50.662-46.094-50.644-79.138 0-29.925 17.184-50.748 43.411-71.11 29.022-22.529 62.331-31.144 95.444-31.144 33.913 0 65.783 7.752 91.96 31.235 22.476 20.178 42.106 43.25 42.106 72.373zM8938.395 214.517c0 30.555-9.241 47.403-33.559 67.887-25.853 21.762-70.402 20.017-102.866 20.017-29.994 0-51.113 2.062-85.8-10.203-34.838-12.367-50.626-46.03-50.608-79.074 0-29.925 17.249-50.559 43.476-70.922 29.022-22.529 62.174-31.163 95.287-31.163 33.913 0 65.652 7.657 91.829 31.14 22.476 20.178 42.241 43.195 42.241 72.318zM9347.344 214.537c0 30.555-9.149 47.268-33.467 67.752-25.853 21.762-70.454 19.947-102.918 19.947-29.994 0-51.022 2.111-85.794-10.072-34.89-12.262-50.593-45.973-50.575-79.017 0-29.925 17.304-50.394 43.531-70.757 29.022-22.529 62.038-31.18 95.151-31.18 33.913 0 65.536 7.573 91.713 31.056 22.477 20.178 42.359 43.147 42.359 72.271zM9756.301 214.554c0 30.555-9.071 47.152-33.389 67.636-25.853 21.762-70.499 19.887-102.963 19.887-29.994 0-50.943 2.153-85.788-9.959-34.935-12.173-50.565-45.924-50.547-78.968 0-29.925 17.352-50.252 43.579-70.616 29.022-22.529 61.92-31.193 95.032-31.193 33.913 0 65.438 7.5 91.615 30.983 22.477 20.178 42.461 43.106 42.461 72.23zM10165.264 214.568c0 30.555-9.004 47.055-33.322 67.539-25.853 21.762-70.537 19.835-103.001 19.835-29.994 0-50.876 2.189-85.784-9.863-34.972-12.097-50.541-45.883-50.523-78.927 0-29.925 17.394-50.132 43.621-70.495 29.022-22.529 61.819-31.206 94.931-31.206 33.913 0 65.354 7.439 91.531 30.922 22.477 20.178 42.547 43.072 42.547 72.195zM10574.234 214.58c0 30.555-8.949 46.973-33.267 67.457-25.853 21.762-70.569 19.793-103.033 19.793-29.994 0-50.82 2.219-85.78-9.784-35.003-12.033-50.521-45.849-50.503-78.893 0-29.925 17.427-50.031 43.654-70.394 29.022-22.529 61.737-31.216 94.849-31.216 33.913 0 65.284 7.387 91.461 30.87 22.477 20.178 42.619 43.043 42.619 72.167zM10983.209 214.59c0 30.555-8.904 46.908-33.222 67.392-25.853 21.762-70.595 19.758-103.059 19.758-29.994 0-50.775 2.243-85.776-9.72-35.029-11.982-50.505-45.821-50.487-78.865 0-29.925 17.454-49.951 43.681-70.315 29.022-22.529 61.67-31.224 94.782-31.224 33.913 0 65.228 7.347 91.405 30.83 22.477 20.178 42.676 43.02 42.676 72.144zM11392.19 214.597c0 30.555-8.87 46.858-33.188 67.342-25.853 21.762-70.614 19.733-103.078 19.733-29.994 0-50.741 2.261-85.774-9.672-35.048-11.943-50.493-45.8-50.475-78.844 0-29.925 17.475-49.89 43.702-70.254 29.022-22.529 61.619-31.23 94.731-31.23 33.913 0 65.186 7.316 91.362 30.799 22.478 20.178 42.72 43.002 42.72 72.126zM11801.177 214.602c0 30.555-8.846 46.823-33.164 67.307-25.853 21.762-70.628 19.715-103.092 19.715-29.994 0-50.717 2.274-85.772-9.638-35.061-11.916-50.485-45.786-50.467-78.83 0-29.925 17.49-49.846 43.717-70.21 29.022-22.529 61.583-31.235 94.695-31.235 33.913 0 65.156 7.294 91.332 30.777 22.478 20.178 42.751 42.99 42.751 72.114zM12210.17 214.605c0 30.555-8.833 46.803-33.151 67.287-25.853 21.762-70.635 19.703-103.099 19.703-29.994 0-50.704 2.282-85.772-9.617-35.069-11.901-50.479-45.777-50.461-78.821 0-29.925 17.498-49.821 43.725-70.185 29.022-22.529 61.562-31.238 94.674-31.238 33.913 0 65.138 7.282 91.314 30.765 22.478 20.178 42.77 42.982 42.77 72.106zM12619.167 214.606c0 30.555-8.828 46.796-33.146 67.28-25.853 21.762-70.638 19.7-103.102 19.7-29.994 0-50.699 2.284-85.771-9.611s-50.478-45.774-50.46-78.818c0-29.925 17.501-49.813 43.728-70.177 29.022-22.529 61.555-31.238 94.667-31.238 33.913 0 65.133 7.277 91.309 30.76 22.478 20.178 42.775 42.98 42.775 72.104zM13028.143 214.594c-.047 30.539-8.849 46.749-33.167 67.233-25.853 21.762-70.573 19.714-103.043 19.722-29.994.007-50.696 2.28-85.779-9.599-35.076-11.878-50.628-45.689-50.61-78.733 0-29.925 17.558-49.832 43.79-70.188 29.039-22.528 61.611-31.268 94.723-31.275 33.912-.007 65.324 7.226 91.5 30.709 22.478 20.178 42.643 43.008 42.586 72.131zM13437.065 214.555c-.203 30.484-8.919 46.592-33.237 67.076-25.853 21.762-70.358 19.761-102.85 19.797-29.992.03-50.687 2.265-85.804-9.56-35.09-11.822-51.123-45.411-51.105-78.455 0-29.925 17.744-49.892 43.994-70.223 29.098-22.523 61.795-31.366 94.907-31.397 33.912-.031 65.957 7.057 92.133 30.54 22.478 20.178 42.207 43.101 41.962 72.222zM13845.919 214.482c-.494 30.381-9.05 46.301-33.368 66.785-25.853 21.762-69.957 19.847-102.489 19.934-29.99.074-50.668 2.24-85.852-9.486-35.114-11.717-52.044-44.892-52.026-77.936 0-29.925 18.092-50.006 44.375-70.289 29.205-22.514 62.137-31.549 95.25-31.623 33.91-.076 67.135 6.742 93.311 30.225 22.478 20.178 41.395 43.273 40.799 72.39zM14254.688 214.366c-.953 30.221-9.256 45.841-33.575 66.325-25.853 21.762-69.322 19.984-101.917 20.152-29.987.143-50.641 2.198-85.928-9.371-35.154-11.551-53.501-44.07-53.483-77.114 0-29.925 18.641-50.185 44.976-70.393 29.376-22.501 62.68-31.838 95.794-31.982 33.906-.147 68.997 6.245 95.173 29.728 22.478 20.177 40.111 43.545 38.96 72.655zM14663.35 214.197c-1.624 29.985-9.557 45.167-33.877 65.651-25.852 21.762-68.395 20.185-101.083 20.472-29.981.244-50.599 2.137-86.037-9.202-35.212-11.309-55.632-42.871-55.614-75.915 0-29.925 19.445-50.446 45.856-70.544 29.625-22.481 63.472-32.261 96.587-32.507 33.902-.249 71.719 5.518 97.895 29.001 22.478 20.177 38.236 43.945 36.273 73.044zM15071.882 213.962c-2.557 29.658-9.976 44.233-34.297 64.717-25.853 21.762-67.109 20.462-99.924 20.914-29.974.384-50.542 2.054-86.191-8.967-35.291-10.973-58.588-41.204-58.571-74.248 0-29.925 20.56-50.811 47.077-70.755 29.972-22.453 64.573-32.849 97.689-33.235 33.895-.393 75.499 4.508 101.675 27.991 22.478 20.176 35.63 44.498 32.542 73.583zM15480.263 213.652c-3.788 29.226-10.529 42.998-34.851 63.482-25.853 21.762-65.409 20.83-98.394 21.499-29.963.569-50.466 1.943-86.393-8.657-35.397-10.528-62.495-39.003-62.477-72.047 0-29.925 22.033-51.291 48.69-71.033 30.429-22.417 66.026-33.625 99.145-34.197 33.886-.582 80.491 3.175 106.667 26.658 22.478 20.174 32.189 45.229 27.613 74.295zM15888.499 213.27c-5.307 28.693-11.211 41.475-35.534 61.959-25.853 21.762-63.312 21.282-96.506 22.22-29.951.796-50.372 1.806-86.643-8.275-35.527-9.98-67.314-36.287-67.296-69.331 0-29.925 23.851-51.884 50.68-71.376 30.993-22.373 67.819-34.583 100.94-35.384 33.876-.815 86.651 1.529 112.827 25.012 22.478 20.173 27.943 46.131 21.532 75.175zM16296.643 212.841c-7.01 28.095-11.976 39.767-36.301 60.251-25.853 21.762-60.961 21.79-94.389 23.03-29.937 1.051-50.267 1.651-86.922-7.846-35.673-9.367-72.718-33.243-72.7-66.287 0-29.925 25.889-52.548 52.911-71.761 31.626-22.322 69.829-35.657 102.954-36.715 33.863-1.076 93.556-.315 119.732 23.168 22.478 20.171 23.184 47.142 14.715 76.16zM16704.78 212.408c-8.727 27.493-12.747 38.046-37.074 58.53-25.852 21.762-58.59 22.303-92.255 23.845-29.923 1.31-50.161 1.497-87.204-7.413-35.82-8.747-78.164-30.174-78.147-63.218 0-29.925 27.943-53.218 55.16-72.149 32.264-22.272 71.856-36.739 104.984-38.056 33.851-1.34 100.518-2.175 126.694 21.308 22.478 20.17 18.385 48.162 7.842 77.153zM17112.981 212.009c-10.315 26.935-13.46 36.453-37.788 56.937-25.852 21.762-56.398 22.776-90.281 24.6-29.911 1.547-50.063 1.353-87.465-7.014-35.956-8.174-83.202-27.335-83.185-60.379 0-29.925 29.844-53.838 57.24-72.508 32.854-22.225 73.731-37.74 106.861-39.296 33.84-1.584 106.957-3.896 133.133 19.588 22.478 20.168 13.947 49.104 1.485 78.072zM17521.28 211.657c-11.712 26.446-14.088 35.054-38.417 55.538-25.852 21.762-54.471 23.192-88.546 25.263-29.899 1.756-49.977 1.227-87.695-6.663-36.075-7.671-87.63-24.84-87.613-57.884 0-29.925 31.514-54.382 59.069-72.822 33.372-22.184 75.378-38.62 108.511-40.388 33.83-1.798 112.617-5.407 138.793 18.077 22.478 20.167 10.046 49.932-4.102 78.879zM17929.677 211.355c-12.91 26.025-14.626 33.851-38.956 54.335-25.852 21.762-52.816 23.551-87.056 25.833-29.89 1.936-49.904 1.119-87.892-6.361-36.178-7.238-91.434-22.696-91.417-55.74 0-29.925 32.949-54.85 60.639-73.094 33.818-22.148 76.794-39.376 109.929-41.324 33.821-1.982 117.479-6.706 143.655 16.778 22.478 20.166 6.695 50.645-8.902 79.573zM18338.163 211.098c-13.932 25.666-15.085 32.826-39.416 53.31-25.852 21.762-51.405 23.855-85.785 26.318-29.882 2.09-49.841 1.027-88.06-6.103-36.266-6.869-94.677-20.869-94.659-53.913 0-29.925 34.171-55.249 61.978-73.325 34.197-22.119 78-40.02 111.137-42.122 33.813-2.14 121.622-7.813 147.798 15.67 22.478 20.165 3.839 51.252-12.993 80.165zM18746.725 210.879c-14.802 25.361-15.475 31.954-39.807 52.438-25.852 21.762-50.204 24.114-84.704 26.731-29.875 2.22-49.787.948-88.202-5.884-36.341-6.556-97.438-19.314-97.421-52.358 0-29.925 35.213-55.588 63.118-73.521 34.521-22.093 79.028-40.569 112.166-42.802 33.808-2.274 125.151-8.756 151.327 14.728 22.478 20.164 1.406 51.768-16.477 80.668zM19155.353 210.692c-15.545 25.101-15.809 31.21-40.142 51.694-25.852 21.762-49.18 24.336-83.782 27.084-29.868 2.331-49.741.881-88.324-5.698-36.404-6.288-99.791-17.987-99.774-51.031 0-29.925 36.1-55.878 64.09-73.689 34.796-22.071 79.903-41.036 113.043-43.382 33.802-2.387 128.158-9.559 154.334 13.925 22.478 20.163-.666 52.208-19.445 81.097zM19564.034 210.532c-16.178 24.879-16.093 30.575-40.426 51.059-25.852 21.762-48.306 24.525-82.995 27.385-29.863 2.427-49.702.824-88.428-5.538-36.459-6.059-101.801-16.855-101.783-49.899 0-29.925 36.858-56.125 64.919-73.832 35.031-22.053 80.651-41.436 113.792-43.877 33.797-2.484 130.726-10.245 156.902 13.239 22.478 20.163-2.437 52.584-21.981 81.463zM19972.762 210.396c-16.719 24.689-16.336 30.033-40.67 50.517-25.852 21.762-47.558 24.686-82.322 27.641-29.859 2.508-49.669.776-88.517-5.402-36.505-5.864-103.517-15.887-103.5-48.931 0-29.925 37.506-56.337 65.628-73.955 35.233-22.036 81.29-41.776 114.432-44.299 33.793-2.568 132.92-10.831 159.096 12.653 22.478 20.162-3.949 52.905-24.147 81.776zM20381.53 210.28c-17.181 24.526-16.543 29.569-40.878 50.053-25.852 21.762-46.921 24.824-81.748 27.861-29.855 2.577-49.64.734-88.593-5.285-36.545-5.698-104.982-15.063-104.965-48.107 0-29.925 38.058-56.516 66.233-74.058 35.404-22.023 81.835-42.068 114.978-44.66 33.79-2.639 134.793-11.332 160.969 12.152 22.478 20.162-5.24 53.18-25.996 82.044zM20790.332 210.181c-17.574 24.388-16.72 29.175-41.054 49.659-25.852 21.762-46.379 24.941-81.26 28.048-29.852 2.636-49.616.698-88.657-5.187-36.579-5.556-106.23-14.359-106.213-47.403 0-29.925 38.528-56.67 66.748-74.147 35.55-22.012 82.299-42.316 115.442-44.968 33.788-2.699 136.389-11.757 162.565 11.727 22.478 20.161-6.34 53.413-27.571 82.271zM21199.165 210.097c-17.908 24.271-16.87 28.841-41.205 49.325-25.852 21.762-45.918 25.04-80.845 28.206-29.85 2.686-49.596.668-88.712-5.103-36.607-5.435-107.288-13.763-107.271-46.807 0-29.925 38.928-56.8 67.185-74.223 35.674-22.001 82.693-42.526 115.837-45.228 33.785-2.75 137.74-12.118 163.916 11.366 22.478 20.161-7.271 53.611-28.905 82.464zM21608.023 210.026c-18.188 24.173-16.995 28.559-41.33 49.043-25.853 21.762-45.531 25.125-80.497 28.34-29.847 2.728-49.578.643-88.758-5.032-36.631-5.334-108.178-13.261-108.161-46.305 0-29.925 39.263-56.91 67.552-74.286 35.779-21.994 83.025-42.703 116.169-45.448 33.783-2.793 138.878-12.422 165.054 11.062 22.478 20.16-8.055 53.778-30.029 82.626zM22016.906 209.967c-18.422 24.091-17.101 28.325-41.436 48.809-25.852 21.762-45.208 25.194-80.206 28.451-29.845 2.763-49.564.622-88.797-4.974-36.651-5.249-108.92-12.843-108.903-45.887 0-29.925 39.544-57.001 67.859-74.339 35.866-21.986 83.3-42.85 116.445-45.63 33.782-2.829 139.827-12.676 166.003 10.808 22.478 20.161-8.709 53.917-30.965 82.762zM22425.809 209.919c-18.614 24.023-17.187 28.132-41.522 48.616-25.852 21.762-44.943 25.251-79.967 28.542-29.844 2.792-49.552.605-88.828-4.925-36.668-5.18-109.53-12.5-109.513-45.544 0-29.925 39.773-57.076 68.111-74.382 35.936-21.981 83.527-42.972 116.672-45.78 33.78-2.859 140.605-12.884 166.781 10.6 22.478 20.16-9.246 54.031-31.734 82.873zM22834.732 209.88c-18.769 23.969-17.257 27.977-41.592 48.461-25.852 21.762-44.73 25.298-79.775 28.616-29.843 2.815-49.543.59-88.854-4.886-36.681-5.125-110.019-12.224-110.002-45.268 0-29.925 39.958-57.136 68.313-74.417 35.994-21.977 83.709-43.069 116.854-45.901 33.779-2.882 141.231-13.051 167.407 10.433 22.478 20.16-9.677 54.122-32.351 82.962zM23243.671 209.85c-18.889 23.927-17.31 27.856-41.646 48.34-25.852 21.762-44.563 25.334-79.625 28.673-29.842 2.833-49.535.58-88.874-4.856-36.691-5.081-110.401-12.008-110.384-45.052 0-29.925 40.102-57.184 68.471-74.445 36.038-21.973 83.851-43.145 116.996-45.995 33.779-2.901 141.72-13.181 167.896 10.303 22.478 20.16-10.014 54.194-32.834 83.032zM23652.626 209.827c-18.978 23.896-17.35 27.767-41.686 48.251-25.852 21.762-44.44 25.36-79.514 28.715-29.841 2.847-49.53.572-88.889-4.833-36.698-5.049-110.685-11.849-110.668-44.893 0-29.925 40.209-57.218 68.588-74.464 36.072-21.971 83.957-43.201 117.103-46.065 33.778-2.915 142.082-13.279 168.258 10.205 22.478 20.161-10.264 54.248-33.192 83.084zM24061.595 209.812c-19.039 23.874-17.378 27.705-41.714 48.189-25.852 21.762-44.355 25.379-79.438 28.744-29.84 2.856-49.525.567-88.898-4.817-36.704-5.027-110.879-11.74-110.862-44.784 0-29.925 40.282-57.242 68.668-74.478 36.095-21.969 84.029-43.24 117.175-46.113 33.777-2.924 142.33-13.344 168.506 10.14 22.478 20.16-10.435 54.283-33.437 83.119zM24470.578 209.803c-19.075 23.862-17.394 27.67-41.73 48.154-25.852 21.762-44.307 25.389-79.394 28.761-29.84 2.861-49.524.563-88.904-4.809-36.707-5.014-110.991-11.676-110.974-44.72 0-29.925 40.324-57.256 68.714-74.487 36.107-21.967 84.07-43.262 117.216-46.14 33.777-2.929 142.473-13.383 168.649 10.101 22.478 20.16-10.533 54.305-33.577 83.14zM24879.572 209.8c-19.086 23.858-17.399 27.659-41.735 48.143-25.852 21.762-44.291 25.392-79.38 28.766-29.84 2.863-49.523.562-88.906-4.806-36.708-5.01-111.027-11.656-111.01-44.7 0-29.925 40.338-57.26 68.729-74.489 36.112-21.967 84.084-43.269 117.23-46.149 33.777-2.931 142.519-13.395 168.695 10.089 22.478 20.16-10.565 54.311-33.623 83.146zM25288.58 209.802c-19.074 23.862-17.398 27.677-41.734 48.161-25.852 21.762-44.304 25.392-79.392 28.764-29.84 2.862-49.528.561-88.904-4.815-36.705-5.02-110.993-11.68-110.976-44.724 0-29.925 40.322-57.264 68.712-74.494 36.107-21.968 84.077-43.261 117.223-46.14 33.777-2.929 142.479-13.378 168.655 10.106 22.478 20.16-10.539 54.307-33.584 83.142zM25697.606 209.808c-19.038 23.874-17.397 27.735-41.733 48.219-25.852 21.762-44.345 25.392-79.427 28.758-29.841 2.856-49.546.556-88.9-4.846-36.693-5.049-110.884-11.752-110.867-44.796 0-29.925 40.27-57.277 68.655-74.514 36.095-21.968 84.058-43.235 117.204-46.108 33.777-2.924 142.351-13.326 168.527 10.158 22.478 20.16-10.458 54.293-33.459 83.129zM26106.652 209.818c-18.976 23.897-17.394 27.836-41.73 48.32-25.852 21.762-44.417 25.394-79.491 28.748-29.841 2.847-49.576.548-88.892-4.898-36.672-5.102-110.693-11.881-110.676-44.925 0-29.925 40.178-57.299 68.557-74.546 36.071-21.97 84.022-43.191 117.168-46.055 33.777-2.914 142.129-13.234 168.305 10.25 22.478 20.16-10.316 54.269-33.241 83.106zM26515.72 209.833c-18.883 23.929-17.391 27.985-41.727 48.469-25.852 21.762-44.524 25.396-79.585 28.734-29.841 2.833-49.619.535-88.878-4.977-36.643-5.178-110.413-12.07-110.396-45.114 0-29.925 40.044-57.332 68.412-74.594 36.037-21.973 83.97-43.126 117.116-45.975 33.778-2.9 141.8-13.099 167.976 10.385 22.478 20.161-10.105 54.234-32.918 83.072zM26924.812 209.854c-18.756 23.974-17.386 28.188-41.722 48.672-25.852 21.762-44.668 25.398-79.712 28.714-29.843 2.813-49.679.519-88.861-5.083-36.603-5.284-110.03-12.329-110.013-45.373 0-29.925 39.861-57.377 68.214-74.659 35.99-21.977 83.899-43.037 117.044-45.867 33.78-2.881 141.353-12.914 167.529 10.57 22.478 20.161-9.819 54.186-32.479 83.026zM27333.932 209.881c-18.592 24.031-17.38 28.452-41.716 48.936-25.852 21.762-44.856 25.4-79.877 28.687-29.844 2.789-49.757.497-88.84-5.221-36.55-5.42-109.533-12.664-109.516-45.708 0-29.925 39.623-57.434 67.958-74.744 35.929-21.981 83.806-42.921 116.952-45.726 33.78-2.855 140.772-12.674 166.948 10.81 22.478 20.16-9.447 54.124-31.909 82.966zM27743.082 209.914c-18.386 24.104-17.372 28.783-41.707 49.267-25.852 21.762-45.093 25.405-80.085 28.655-29.846 2.758-49.855.47-88.812-5.394-36.485-5.591-108.91-13.085-108.893-46.129 0-29.925 39.325-57.507 67.637-74.85 35.852-21.988 83.689-42.776 116.835-45.55 33.782-2.824 140.043-12.373 166.219 11.111 22.477 20.16-8.981 54.045-31.194 82.89zM28152.267 209.956c-18.133 24.192-17.362 29.189-41.697 49.673-25.852 21.762-45.383 25.409-80.341 28.615-29.848 2.72-49.975.437-88.778-5.608-36.404-5.801-108.143-13.602-108.126-46.646 0-29.925 38.958-57.596 67.241-74.98 35.758-21.995 83.547-42.597 116.692-45.333 33.784-2.785 139.147-12.003 165.324 11.481 22.476 20.161-8.408 53.949-30.315 82.798zM28561.491 210.006c-17.827 24.3-17.351 29.681-41.686 50.165-25.852 21.762-45.733 25.415-80.649 28.566-29.85 2.674-50.12.397-88.737-5.865-36.306-6.055-107.216-14.227-107.199-47.271 0-29.925 38.514-57.704 66.762-75.139 35.645-22.004 83.375-42.381 116.52-45.071 33.786-2.737 138.063-11.555 164.24 11.929 22.476 20.161-7.715 53.833-29.251 82.686zM28970.757 210.065c-17.462 24.428-17.337 30.269-41.671 50.753-25.852 21.762-46.152 25.421-81.018 28.507-29.853 2.62-50.293.349-88.687-6.172-36.19-6.359-106.111-14.973-106.094-48.017 0-29.925 37.985-57.833 66.192-75.327 35.509-22.015 83.169-42.123 116.313-44.758 33.789-2.682 136.772-11.022 162.949 12.462 22.475 20.161-6.888 53.694-27.984 82.552zM29380.071 210.136c-17.031 24.579-17.32 30.959-41.654 51.443-25.852 21.762-46.645 25.429-81.452 28.44-29.856 2.555-50.497.292-88.629-6.534-36.053-6.717-104.809-15.853-104.792-48.896 0-29.926 37.362-57.985 65.52-75.55 35.349-22.028 82.927-41.819 116.071-44.389 33.791-2.616 135.248-10.394 161.426 13.09 22.474 20.162-5.914 53.531-26.49 82.396zM29789.437 210.218c-16.53 24.755-17.301 31.765-41.635 52.249-25.852 21.762-47.219 25.438-81.957 28.36-29.86 2.479-50.735.226-88.561-6.956-35.893-7.133-103.291-16.877-103.274-49.921 0-29.925 36.635-58.161 64.737-75.808 35.162-22.043 82.643-41.466 115.787-43.96 33.795-2.538 133.473-9.661 159.651 13.823 22.473 20.163-4.779 53.341-24.748 82.213zM30198.858 210.312c-15.952 24.958-17.279 32.693-41.612 53.177-25.852 21.762-47.881 25.448-82.539 28.268-29.865 2.393-51.009.15-88.483-7.442-35.709-7.612-101.545-18.055-101.528-51.099 0-29.925 35.8-58.365 63.836-76.107 34.947-22.059 82.318-41.058 115.461-43.465 33.799-2.45 131.43-8.817 157.609 14.666 22.473 20.163-3.472 53.122-22.744 82.002zM30608.335 210.419c-15.298 25.187-17.253 33.743-41.586 54.227-25.852 21.762-48.63 25.46-83.198 28.164-29.871 2.295-51.319.065-88.396-7.992-35.5-8.155-99.565-19.391-99.548-52.434 0-29.926 34.853-58.596 62.814-76.445 34.705-22.078 81.95-40.596 115.092-42.905 33.804-2.349 129.116-7.862 155.296 15.622 22.471 20.164-1.992 52.874-20.474 81.763zM31017.866 210.538c-14.57 25.442-17.226 34.912-41.558 55.396-25.852 21.762-49.464 25.473-83.931 28.048-29.877 2.186-51.664-.03-88.298-8.604-35.268-8.759-97.363-20.877-97.346-53.92 0-29.926 33.799-58.853 61.678-76.82 34.434-22.1 81.539-40.083 114.681-42.282 33.81-2.238 126.541-6.799 152.721 16.685 22.47 20.164-.344 52.597-17.947 81.497zM31427.443 210.667c-13.779 25.72-17.195 36.184-41.526 56.668-25.852 21.762-50.371 25.486-84.73 27.922-29.882 2.067-52.039-.134-88.19-9.269-35.017-9.417-94.968-22.494-94.951-55.537 0-29.926 32.652-59.132 60.441-77.228 34.14-22.124 81.094-39.526 114.235-41.605 33.815-2.116 123.74-5.643 149.921 17.841 22.469 20.165 1.447 52.297-15.2 81.208zM31837.055 210.804c-12.94 26.015-17.163 37.531-41.493 58.015-25.852 21.762-51.332 25.502-85.576 27.789-29.889 1.941-52.436-.244-88.077-9.975-34.749-10.113-92.43-24.206-92.413-57.249 0-29.926 31.437-59.428 59.131-77.661 33.829-22.148 80.622-38.934 113.762-40.887 33.821-1.987 120.773-4.417 146.955 19.066 22.466 20.166 3.345 51.979-12.289 80.902zM32246.686 210.946c-12.076 26.317-17.13 38.919-41.46 59.403-25.852 21.762-52.322 25.517-86.446 27.652-29.897 1.811-52.847-.358-87.961-10.702-34.474-10.832-89.814-25.972-89.797-59.015 0-29.926 30.185-59.733 57.781-78.108 33.508-22.173 80.134-38.323 113.274-40.146 33.827-1.854 117.713-3.154 143.896 20.329 22.465 20.167 5.302 51.651-9.287 80.587zM32656.319 211.087c-11.209 26.622-17.097 40.313-41.426 60.797-25.852 21.762-53.315 25.533-87.321 27.514-29.903 1.681-53.258-.472-87.844-11.432-34.197-11.551-87.189-27.742-87.172-60.786 0-29.925 28.929-60.039 56.427-78.555 33.185-22.199 79.645-37.712 112.784-39.403 33.833-1.721 114.644-1.888 140.828 21.596 22.463 20.167 7.265 51.322-6.276 80.269zM33065.938 211.226c-10.359 26.92-17.064 41.677-41.392 62.161-25.852 21.762-54.289 25.548-88.177 27.379-29.91 1.554-53.661-.583-87.73-12.146-33.926-12.257-84.618-29.477-84.601-62.521 0-29.925 27.698-60.338 55.1-78.993 32.87-22.224 79.167-37.113 112.305-38.676 33.839-1.591 111.638-.647 137.822 22.837 22.462 20.168 9.188 50.999-3.327 79.959zM33475.534 211.359c-9.544 27.207-17.033 42.988-41.361 63.472-25.851 21.762-55.223 25.563-89 27.249-29.916 1.432-54.047-.69-87.619-12.832-33.666-12.935-82.15-31.144-82.132-64.187 0-29.925 26.517-60.626 53.826-79.414 32.567-22.249 78.706-36.538 111.844-37.978 33.845-1.465 108.751.546 134.936 24.029 22.46 20.169 11.035 50.69-.494 79.661zM33885.097 211.486c-8.771 27.477-17.003 44.227-41.33 64.711-25.852 21.762-56.108 25.577-89.778 27.127-29.923 1.316-54.414-.792-87.516-13.482-33.42-13.575-79.813-32.72-79.796-65.763 0-29.926 25.399-60.899 52.621-79.813 32.28-22.271 78.271-35.993 111.408-37.316 33.851-1.347 106.019 1.673 132.205 25.156 22.459 20.17 12.782 50.397 2.186 79.38zM34294.624 211.604c-8.047 27.731-16.975 45.389-41.301 65.873-25.852 21.762-56.936 25.589-90.507 27.012-29.929 1.207-54.757-.887-87.418-14.09-33.19-14.176-77.625-34.197-77.608-67.241 0-29.925 24.352-61.153 51.491-80.186 32.012-22.292 77.864-35.482 111.001-36.696 33.855-1.236 103.459 2.729 129.646 26.212 22.458 20.171 14.419 50.123 4.696 79.116zM34704.115 211.714c-7.375 27.967-16.949 46.47-41.275 66.954-25.852 21.762-57.707 25.601-91.185 26.905-29.934 1.106-55.076-.975-87.328-14.656-32.974-14.735-75.588-35.571-75.571-68.615 0-29.925 23.377-61.39 50.44-80.533 31.761-22.312 77.485-35.008 110.621-36.12 33.86-1.133 101.079 3.712 127.266 27.195 22.457 20.171 15.942 49.867 7.032 78.87zM35113.57 211.816c-6.752 28.186-16.926 47.471-41.251 67.955-25.852 21.762-58.421 25.612-91.813 26.806-29.939 1.012-55.371-1.057-87.244-15.181-32.776-15.252-73.703-36.843-73.686-69.886 0-29.926 22.475-61.611 49.467-80.856 31.53-22.33 77.135-34.568 110.27-35.586 33.864-1.037 98.874 4.622 125.061 28.105 22.456 20.172 17.353 49.631 9.196 78.643zM35522.99 211.91c-6.176 28.388-16.903 48.396-41.228 68.88-25.852 21.762-59.081 25.622-92.394 26.714-29.944.927-55.644-1.132-87.166-15.664-32.592-15.731-71.96-38.02-71.943-71.063 0-29.926 21.64-61.814 48.567-81.153 31.317-22.347 76.81-34.161 109.945-35.093 33.869-.949 96.836 5.463 123.024 28.947 22.455 20.172 18.656 49.412 11.195 78.432zM35932.378 211.997c-5.645 28.574-16.883 49.249-41.207 69.733-25.852 21.762-59.69 25.633-92.93 26.63-29.948.847-55.896-1.202-87.094-16.111-32.424-16.172-70.352-39.105-70.335-72.149 0-29.925 20.87-62.001 47.737-81.426 31.119-22.363 76.511-33.787 109.645-34.639 33.872-.866 94.955 6.24 121.144 29.724 22.453 20.172 19.858 49.21 13.04 78.238zM36341.735 212.077c-5.154 28.746-16.864 50.037-41.187 70.521-25.852 21.762-60.252 25.641-93.425 26.552-29.951.773-56.128-1.266-87.028-16.524-32.266-16.579-68.867-40.106-68.85-73.15 0-29.925 20.16-62.174 46.971-81.679 30.937-22.378 76.234-33.441 109.368-34.219 33.876-.791 93.22 6.957 119.409 30.44 22.452 20.173 20.969 49.024 14.742 78.059zM36751.065 212.151c-4.701 28.905-16.846 50.764-41.169 71.248-25.852 21.762-60.77 25.649-93.881 26.48-29.955.706-56.343-1.326-86.967-16.904-32.122-16.956-67.498-41.031-67.481-74.074 0-29.926 19.505-62.334 46.265-81.914 30.768-22.39 75.979-33.121 109.112-33.831 33.879-.722 91.618 7.618 117.808 31.101 22.452 20.174 21.993 48.853 16.313 77.894zM37160.37 212.219c-4.283 29.052-16.83 51.435-41.153 71.919-25.852 21.762-61.249 25.657-94.302 26.414-29.959.643-56.541-1.381-86.91-17.256-31.99-17.302-66.235-41.884-66.218-74.927 0-29.926 18.9-62.481 45.613-82.129 30.613-22.403 75.743-32.827 108.876-33.473 33.883-.658 90.141 8.228 116.331 31.711 22.451 20.174 22.938 48.694 17.763 77.741zM37569.651 212.282c-3.898 29.187-16.815 52.055-41.138 72.539-25.852 21.762-61.69 25.663-94.69 26.352-29.962.585-56.724-1.431-86.859-17.58-31.866-17.622-65.067-42.671-65.05-75.714 0-29.926 18.341-62.618 45.01-82.329 30.47-22.414 75.526-32.554 108.659-33.142 33.885-.599 88.776 8.79 114.966 32.274 22.45 20.174 23.812 48.548 19.102 77.6zM37978.911 212.34c-3.541 29.312-16.802 52.627-41.124 73.111-25.852 21.762-62.098 25.67-95.05 26.296-29.964.531-56.892-1.478-86.81-17.88-31.753-17.918-63.989-43.398-63.972-76.442 0-29.925 17.825-62.742 44.454-82.512 30.337-22.424 75.325-32.303 108.457-32.838 33.888-.543 87.516 9.312 113.707 32.795 22.449 20.175 24.617 48.413 20.338 77.47zM38388.151 212.394c-3.212 29.428-16.789 53.156-41.111 73.64-25.852 21.762-62.475 25.675-95.381 26.243-29.968.482-57.049-1.521-86.766-18.157-31.648-18.191-62.994-44.07-62.977-77.113 0-29.926 17.349-62.859 43.94-82.682 30.216-22.435 75.14-32.072 108.272-32.556 33.89-.494 86.351 9.792 112.542 33.275 22.449 20.175 25.363 48.288 21.481 77.35zM38797.373 212.444c-2.908 29.534-16.777 53.644-41.099 74.128-25.852 21.762-62.824 25.681-95.688 26.195-29.97.437-57.193-1.561-86.725-18.412-31.551-18.444-62.073-44.692-62.056-77.736 0-29.925 16.908-62.966 43.465-82.838 30.102-22.444 74.969-31.857 108.1-32.296 33.893-.447 85.274 10.237 111.466 33.72 22.448 20.175 26.051 48.172 22.537 77.239zM39206.579 212.49c-2.628 29.633-16.767 54.096-41.089 74.58-25.852 21.762-63.146 25.686-95.971 26.15-29.972.394-57.327-1.598-86.688-18.649-31.461-18.677-61.221-45.266-61.204-78.309 0-29.926 16.5-63.066 43.025-82.984 29.998-22.452 74.811-31.659 107.942-32.055 33.894-.404 84.279 10.647 110.471 34.13 22.448 20.176 26.687 48.066 23.514 77.137zM39615.768 212.532c-2.367 29.725-16.757 54.514-41.078 74.998-25.852 21.762-63.444 25.69-96.234 26.109-29.974.355-57.449-1.632-86.652-18.868-31.378-18.893-60.435-45.797-60.418-78.84 0-29.926 16.124-63.157 42.62-83.118 29.901-22.459 74.664-31.475 107.795-31.832 33.896-.364 83.359 11.027 109.551 34.51 22.447 20.176 27.276 47.967 24.416 77.041zM40024.943 212.571c-2.127 29.809-16.747 54.9-41.068 75.384-25.852 21.762-63.719 25.695-96.476 26.071-29.976.319-57.563-1.664-86.62-19.07-31.302-19.093-59.709-46.287-59.692-79.331 0-29.925 15.777-63.241 42.245-83.242 29.812-22.466 74.529-31.305 107.66-31.626 33.898-.327 82.51 11.378 108.702 34.861 22.447 20.176 27.819 47.876 25.249 76.953zM40434.105 212.608c-1.905 29.886-16.739 55.255-41.06 75.739-25.852 21.762-63.973 25.699-96.699 26.036-29.978.286-57.669-1.693-86.59-19.257-31.231-19.276-59.038-46.74-59.021-79.783 0-29.926 15.456-63.32 41.899-83.356 29.73-22.473 74.403-31.149 107.534-31.437 33.9-.292 81.725 11.702 107.918 35.185 22.446 20.176 28.321 47.792 26.019 76.873zM40843.254 212.641c-1.7 29.958-16.731 55.584-41.052 76.068-25.852 21.762-64.207 25.703-96.905 26.004-29.979.255-57.766-1.72-86.562-19.429-31.166-19.447-58.419-47.158-58.402-80.201 0-29.926 15.159-63.392 41.579-83.462 29.654-22.479 74.288-31.005 107.419-31.262 33.901-.261 81.001 12.001 107.193 35.484 22.447 20.176 28.785 47.714 26.73 76.798zM41252.392 212.672c-1.512 30.024-16.724 55.887-41.044 76.371-25.852 21.762-64.424 25.706-97.096 25.973-29.981.227-57.855-1.744-86.537-19.587-31.106-19.603-57.848-47.543-57.831-80.586 0-29.926 14.886-63.459 41.285-83.56 29.583-22.484 74.182-30.871 107.312-31.1 33.902-.232 80.334 12.277 106.526 35.76 22.446 20.176 29.212 47.643 27.385 76.729zM41661.519 212.7c-1.339 30.086-16.718 56.167-41.038 76.651-25.852 21.762-64.623 25.709-97.271 25.945-29.982.201-57.937-1.767-86.513-19.733-31.051-19.748-57.322-47.898-57.305-80.941 0-29.926 14.634-63.52 41.013-83.649 29.519-22.49 74.084-30.75 107.214-30.951 33.904-.206 79.719 12.53 105.912 36.013 22.445 20.176 29.605 47.576 27.988 76.665zM42070.635 212.726c-1.178 30.142-16.711 56.423-41.031 76.907-25.852 21.762-64.806 25.712-97.432 25.92-29.984.177-58.013-1.788-86.492-19.867-31-19.88-56.838-48.224-56.821-81.267 0-29.926 14.403-63.577 40.763-83.732 29.46-22.494 73.994-30.636 107.124-30.814 33.905-.181 79.154 12.763 105.347 36.246 22.445 20.177 29.966 47.516 28.542 76.607zM42479.742 212.75c-1.032 30.193-16.706 56.659-41.025 77.143-25.852 21.762-64.974 25.714-97.58 25.897-29.985.154-58.083-1.808-86.472-19.991-30.953-20.002-56.395-48.524-56.378-81.567 0-29.926 14.19-63.628 40.534-83.807 29.406-22.499 73.912-30.533 107.042-30.689 33.906-.158 78.635 12.977 104.828 36.46 22.445 20.178 30.298 47.461 29.051 76.554zM42888.84 212.772c-.898 30.24-16.701 56.874-41.02 77.358-25.852 21.762-65.128 25.717-97.715 25.876-29.986.134-58.146-1.826-86.454-20.104-30.91-20.113-55.989-48.797-55.972-81.84 0-29.926 13.996-63.676 40.325-83.877 29.355-22.503 73.836-30.438 106.966-30.574 33.906-.138 78.16 13.173 104.353 36.656 22.445 20.178 30.602 47.41 29.517 76.505zM43297.929 212.792c-.775 30.283-16.696 57.071-41.015 77.555-25.852 21.762-65.268 25.719-97.838 25.856-29.987.116-58.205-1.841-86.438-20.207-30.871-20.215-55.619-49.047-55.602-82.09 0-29.926 13.819-63.719 40.134-83.94 29.31-22.506 73.767-30.352 106.897-30.469 33.908-.119 77.727 13.352 103.92 36.835 22.445 20.177 30.879 47.363 29.942 76.46zM43707.011 212.81c-.665 30.322-16.692 57.25-41.012 77.734-25.852 21.762-65.395 25.721-97.95 25.838-29.988.1-58.257-1.856-86.423-20.3-30.835-20.308-55.281-49.275-55.264-82.318 0-29.926 13.658-63.758 39.96-83.997 29.269-22.51 73.704-30.274 106.834-30.374 33.908-.102 77.333 13.515 103.526 36.998 22.444 20.177 31.131 47.321 30.329 76.419zM44116.084 212.827c-.563 30.357-16.687 57.411-41.007 77.895-25.852 21.762-65.511 25.723-98.052 25.823-29.989.084-58.305-1.869-86.409-20.385-30.804-20.392-54.976-49.481-54.959-82.525 0-29.925 13.511-63.793 39.802-84.049 29.231-22.512 73.648-30.202 106.777-30.287 33.909-.087 76.976 13.662 103.169 37.145 22.444 20.178 31.36 47.283 30.679 76.383zM44525.151 212.842c-.472 30.389-16.684 57.558-41.004 78.042-25.852 21.762-65.615 25.724-98.144 25.808-29.989.07-58.348-1.881-86.397-20.462-30.774-20.467-54.7-49.667-54.683-82.71 0-29.926 13.38-63.826 39.66-84.097 29.197-22.515 73.596-30.138 106.725-30.209 33.91-.072 76.654 13.795 102.847 37.278 22.444 20.178 31.566 47.249 30.996 76.35zM44934.21 212.855c-.39 30.418-16.681 57.689-41 78.173-25.852 21.762-65.709 25.726-98.227 25.795-29.989.059-58.387-1.892-86.385-20.53-30.749-20.535-54.453-49.834-54.436-82.877 0-29.926 13.261-63.855 39.532-84.139 29.167-22.517 73.55-30.08 106.679-30.139 33.911-.06 76.365 13.915 102.558 37.398 22.444 20.177 31.751 47.217 31.279 76.319zM45343.263 212.867c-.317 30.444-16.678 57.806-40.997 78.29-25.852 21.762-65.792 25.727-98.3 25.783-29.99.048-58.421-1.901-86.376-20.591-30.725-20.596-54.233-49.983-54.216-83.026 0-29.926 13.156-63.88 39.419-84.176 29.14-22.52 73.509-30.029 106.638-30.077 33.911-.049 76.107 14.021 102.301 37.504 22.443 20.178 31.915 47.19 31.531 76.293zM45752.31 212.878c-.253 30.466-16.676 57.909-40.995 78.393-25.852 21.762-65.866 25.728-98.364 25.773-29.991.038-58.452-1.91-86.368-20.646-30.704-20.649-54.038-50.114-54.021-83.157 0-29.926 13.063-63.902 39.318-84.209 29.117-22.521 73.473-29.984 106.602-30.022 33.912-.039 75.88 14.115 102.074 37.598 22.443 20.178 32.06 47.165 31.754 76.27zM46161.351 212.887c-.197 30.486-16.673 57.999-40.993 78.483-25.852 21.762-65.93 25.729-98.421 25.764-29.991.03-58.478-1.917-86.359-20.693-30.687-20.695-53.869-50.228-53.852-83.271 0-29.926 12.981-63.923 39.231-84.238 29.095-22.523 73.441-29.944 106.57-29.974 33.912-.03 75.681 14.197 101.875 37.68 22.443 20.178 32.187 47.144 31.949 76.249zM46570.386 212.895c-.148 30.502-16.671 58.077-40.99 78.561-25.852 21.762-65.986 25.73-98.47 25.756-29.992.023-58.502-1.923-86.353-20.734-30.672-20.735-53.723-50.327-53.706-83.37 0-29.926 12.912-63.939 39.156-84.263 29.077-22.524 73.413-29.91 106.543-29.932 33.912-.023 75.509 14.267 101.703 37.75 22.443 20.178 32.297 47.126 32.117 76.232zM46979.416 212.901c-.107 30.518-16.67 58.143-40.989 78.627-25.852 21.762-66.032 25.731-98.511 25.75-29.992.017-58.521-1.928-86.348-20.768-30.658-20.769-53.598-50.411-53.581-83.454 0-29.926 12.852-63.954 39.091-84.284 29.062-22.526 73.391-29.881 106.52-29.898 33.913-.016 75.365 14.328 101.558 37.811 22.444 20.178 32.391 47.11 32.26 76.216zM47388.441 212.907c-.074 30.529-16.669 58.197-40.988 78.681-25.852 21.762-66.071 25.732-98.545 25.745-29.993.011-58.537-1.933-86.343-20.797-30.648-20.798-53.496-50.48-53.479-83.523 0-29.926 12.803-63.966 39.039-84.302 29.049-22.527 73.371-29.857 106.5-29.868 33.913-.012 75.244 14.377 101.438 37.86 22.443 20.178 32.467 47.097 32.378 76.204zM47797.461 212.911c-.047 30.539-16.668 58.242-40.987 78.726-25.852 21.762-66.102 25.732-98.573 25.74-29.992.007-58.55-1.937-86.339-20.82-30.639-20.82-53.413-50.536-53.396-83.579 0-29.926 12.763-63.975 38.996-84.316 29.039-22.527 73.356-29.838 106.485-29.845 33.913-.007 75.148 14.417 101.342 37.9 22.443 20.178 32.528 47.087 32.472 76.194zM48206.476 212.915c-.026 30.546-16.667 58.274-40.986 78.758-25.852 21.762-66.126 25.733-98.594 25.737-29.993.004-58.56-1.939-86.336-20.837-30.633-20.837-53.351-50.578-53.334-83.621 0-29.926 12.734-63.983 38.964-84.327 29.031-22.528 73.344-29.823 106.473-29.827 33.913-.004 75.075 14.447 101.269 37.93 22.443 20.178 32.575 47.079 32.544 76.187zM48615.487 212.917c-.012 30.551-16.667 58.298-40.986 78.782-25.852 21.762-66.143 25.733-98.608 25.735-29.993.001-58.567-1.942-86.335-20.85-30.627-20.849-53.306-50.608-53.289-83.651 0-29.926 12.712-63.988 38.941-84.334 29.026-22.528 73.336-29.813 106.465-29.814 33.913-.002 75.023 14.468 101.217 37.951 22.443 20.178 32.608 47.073 32.595 76.181zM49024.493 212.919c-.003 30.554-16.666 58.311-40.985 78.795-25.852 21.762-66.153 25.733-98.617 25.733-29.993.001-58.571-1.942-86.334-20.856-30.625-20.857-53.28-50.625-53.263-83.668 0-29.926 12.7-63.991 38.927-84.339 29.023-22.529 73.332-29.807 106.461-29.807 33.913-.001 74.993 14.481 101.187 37.964 22.443 20.178 32.627 47.07 32.624 76.178zM49433.495 212.919c0 30.555-16.666 58.316-40.985 78.8-25.852 21.762-66.156 25.733-98.62 25.733-29.993 0-58.572-1.943-86.333-20.859-30.624-20.859-53.272-50.631-53.255-83.674 0-29.926 12.696-63.992 38.923-84.34 29.022-22.529 73.33-29.805 106.459-29.805 33.913 0 74.983 14.485 101.177 37.968 22.443 20.178 32.634 47.069 32.634 76.177z" fill="#d4f7ff"/></svg>