<svg xmlns="http://www.w3.org/2000/svg" viewBox="0 0 24949 409" width="24949" height="409"><path d="M353.495 212.919c0 30.555-16.666 58.316-40.985 78.8-25.852 21.762-66.156 25.733-98.62 25.733-29.993 0-58.572-1.943-86.333-20.859-30.624-20.859-53.272-50.631-53.255-83.674 0-29.926 12.696-63.992 38.923-84.34 29.022-22.529 73.33-29.805 106.459-29.805 33.913 0 74.983 14.485 101.177 37.968 22.443 20.178 32.634 47.069 32.634 76.177zM761.538 213.292c0 30.555-14.933 55.77-39.252 76.254-25.852 21.762-67.147 24.4-99.611 24.4-29.993 0-56.832-1.009-86.208-18.374-31.607-18.878-52.655-49.557-52.638-82.6 0-29.926 13.758-60.859 39.985-81.21 29.022-22.529 70.728-30.122 103.853-30.122 33.913 0 72.806 12.892 98.996 36.375 22.451 20.178 34.875 46.165 34.875 75.277zM1169.865 213.554c0 30.555-13.714 53.978-38.033 74.462-25.852 21.762-67.844 23.46-100.308 23.46-29.993 0-55.606-.351-86.121-16.622-32.299-17.483-52.22-48.802-52.202-81.845 0-29.926 14.505-58.652 40.732-79.006 29.022-22.529 68.896-30.345 102.018-30.345 33.913 0 71.273 11.77 97.46 35.253 22.457 20.178 36.454 45.529 36.454 74.643zM1578.331 213.762c0 30.555-12.747 52.556-37.066 73.041-25.852 21.762-68.396 22.716-100.86 22.716-29.994 0-54.636.171-86.052-15.235-32.849-16.377-51.875-48.202-51.858-81.246 0-29.925 15.099-56.902 41.325-77.258 29.023-22.529 67.443-30.522 100.563-30.522 33.914 0 70.059 10.881 96.244 34.364 22.46 20.178 37.704 45.025 37.704 74.14zM1986.894 213.933c0 30.555-11.955 51.392-36.274 71.876-25.852 21.762-68.85 22.106-101.314 22.106-29.993 0-53.839.598-85.995-14.098-33.297-15.471-51.592-47.711-51.575-80.755 0-29.925 15.584-55.469 41.811-75.827 29.022-22.529 66.253-30.666 99.371-30.666 33.913 0 69.063 10.152 95.246 33.635 22.464 20.178 38.73 44.611 38.73 73.729zM2395.53 214.075c0 30.555-11.296 50.423-35.615 70.907-25.852 21.762-69.226 21.6-101.69 21.6-29.994 0-53.178.953-85.948-13.153-33.671-14.718-51.358-47.303-51.34-80.347 0-29.925 15.988-54.278 42.215-74.637 29.022-22.529 65.263-30.787 98.38-30.787 33.913 0 68.235 9.547 94.416 33.03 22.467 20.178 39.582 44.268 39.582 73.387zM2804.226 214.193c0 30.555-10.746 49.616-35.064 70.1-25.853 21.762-69.541 21.176-102.005 21.176-29.994 0-52.626 1.249-85.909-12.364-33.983-14.089-51.162-46.962-51.144-80.006 0-29.925 16.325-53.283 42.552-73.643 29.022-22.529 64.437-30.888 97.553-30.888 33.913 0 67.544 9.041 93.724 32.524 22.47 20.178 40.293 43.981 40.293 73.101zM3212.973 214.292c0 30.555-10.288 48.941-34.606 69.425-25.853 21.762-69.803 20.823-102.267 20.823-29.994 0-52.165 1.497-85.876-11.705-34.244-13.564-50.998-46.678-50.98-79.722 0-29.925 16.606-52.453 42.833-72.814 29.022-22.529 63.747-30.972 96.863-30.972 33.913 0 66.967 8.62 93.146 32.103 22.471 20.178 40.887 43.741 40.887 72.862zM3621.763 214.374c0 30.555-9.907 48.382-34.225 68.866-25.853 21.762-70.021 20.53-102.485 20.53-29.994 0-51.783 1.702-85.849-11.159-34.459-13.129-50.862-46.443-50.844-79.487 0-29.925 16.839-51.765 43.066-72.126 29.022-22.529 63.176-31.041 96.29-31.041 33.913 0 66.489 8.269 92.668 31.752 22.473 20.178 41.379 43.543 41.379 72.665zM4030.591 214.441c0 30.555-9.596 47.924-33.914 68.408-25.853 21.762-70.199 20.29-102.663 20.29-29.994 0-51.47 1.87-85.826-10.712-34.637-12.772-50.751-46.249-50.734-79.293 0-29.925 17.031-51.201 43.258-71.564 29.022-22.529 62.708-31.097 95.821-31.097 33.913 0 66.098 7.982 92.275 31.465 22.475 20.178 41.783 43.38 41.783 72.503zM4439.452 214.495c0 30.555-9.344 47.555-33.662 68.039-25.853 21.762-70.343 20.098-102.807 20.098-29.994 0-51.218 2.005-85.808-10.353-34.779-12.486-50.662-46.094-50.644-79.138 0-29.925 17.184-50.748 43.411-71.11 29.022-22.529 62.331-31.144 95.444-31.144 33.913 0 65.783 7.752 91.96 31.235 22.476 20.178 42.106 43.25 42.106 72.373zM4848.344 214.537c0 30.555-9.149 47.268-33.467 67.752-25.853 21.762-70.454 19.947-102.918 19.947-29.994 0-51.022 2.111-85.794-10.072-34.89-12.262-50.593-45.973-50.575-79.017 0-29.925 17.304-50.394 43.531-70.757 29.022-22.529 62.038-31.18 95.151-31.18 33.913 0 65.536 7.573 91.713 31.056 22.477 20.178 42.359 43.147 42.359 72.271zM5257.264 214.568c0 30.555-9.004 47.055-33.322 67.539-25.853 21.762-70.537 19.835-103.001 19.835-29.994 0-50.876 2.189-85.784-9.863-34.972-12.097-50.541-45.883-50.523-78.927 0-29.925 17.394-50.132 43.621-70.495 29.022-22.529 61.819-31.206 94.931-31.206 33.913 0 65.354 7.439 91.531 30.922 22.477 20.178 42.547 43.072 42.547 72.195zM5666.209 214.59c0 30.555-8.904 46.908-33.222 67.392-25.853 21.762-70.595 19.758-103.059 19.758-29.994 0-50.775 2.243-85.776-9.72-35.029-11.982-50.505-45.821-50.487-78.865 0-29.925 17.454-49.951 43.681-70.315 29.022-22.529 61.67-31.224 94.782-31.224 33.913 0 65.228 7.347 91.405 30.83 22.477 20.178 42.676 43.02 42.676 72.144zM6075.177 214.602c0 30.555-8.846 46.823-33.164 67.307-25.853 21.762-70.628 19.715-103.092 19.715-29.994 0-50.717 2.274-85.772-9.638-35.061-11.916-50.485-45.786-50.467-78.83 0-29.925 17.49-49.846 43.717-70.21 29.022-22.529 61.583-31.235 94.695-31.235 33.913 0 65.156 7.294 91.332 30.777 22.478 20.178 42.751 42.99 42.751 72.114zM6484.167 214.606c0 30.555-8.828 46.796-33.146 67.28-25.853 21.762-70.638 19.7-103.102 19.7-29.994 0-50.699 2.284-85.771-9.611s-50.478-45.774-50.46-78.818c0-29.925 17.501-49.813 43.728-70.177 29.022-22.529 61.555-31.238 94.667-31.238 33.913 0 65.133 7.277 91.309 30.76 22.478 20.178 42.775 42.98 42.775 72.104zM6893.065 214.555c-.203 30.484-8.919 46.592-33.237 67.076-25.853 21.762-70.358 19.761-102.85 19.797-29.992.03-50.687 2.265-85.804-9.56-35.09-11.822-51.123-45.411-51.105-78.455 0-29.925 17.744-49.892 43.994-70.223 29.098-22.523 61.795-31.366 94.907-31.397 33.912-.031 65.957 7.057 92.133 30.54 22.478 20.178 42.207 43.101 41.962 72.222zM7301.688 214.366c-.953 30.221-9.256 45.841-33.575 66.325-25.853 21.762-69.322 19.984-101.917 20.152-29.987.143-50.641 2.198-85.928-9.371-35.154-11.551-53.501-44.07-53.483-77.114 0-29.925 18.641-50.185 44.976-70.393 29.376-22.501 62.68-31.838 95.794-31.982 33.906-.147 68.997 6.245 95.173 29.728 22.478 20.177 40.111 43.545 38.96 72.655zM7709.882 213.962c-2.557 29.658-9.976 44.233-34.297 64.717-25.853 21.762-67.109 20.462-99.924 20.914-29.974.384-50.542 2.054-86.191-8.967-35.291-10.973-58.588-41.204-58.571-74.248 0-29.925 20.56-50.811 47.077-70.755 29.972-22.453 64.573-32.849 97.689-33.235 33.895-.393 75.499 4.508 101.675 27.991 22.478 20.176 35.63 44.498 32.542 73.583zM8117.499 213.27c-5.307 28.693-11.211 41.475-35.534 61.959-25.853 21.762-63.312 21.282-96.506 22.22-29.951.796-50.372 1.806-86.643-8.275-35.527-9.98-67.314-36.287-67.296-69.331 0-29.925 23.851-51.884 50.68-71.376 30.993-22.373 67.819-34.583 100.94-35.384 33.876-.815 86.651 1.529 112.827 25.012 22.478 20.173 27.943 46.131 21.532 75.175zM8524.78 212.408c-8.727 27.493-12.747 38.046-37.074 58.53-25.852 21.762-58.59 22.303-92.255 23.845-29.923 1.31-50.161 1.497-87.204-7.413-35.82-8.747-78.164-30.174-78.147-63.218 0-29.925 27.943-53.218 55.16-72.149 32.264-22.272 71.856-36.739 104.984-38.056 33.851-1.34 100.518-2.175 126.694 21.308 22.478 20.17 18.385 48.162 7.842 77.153zM8932.28 211.657c-11.712 26.446-14.088 35.054-38.417 55.538-25.852 21.762-54.471 23.192-88.546 25.263-29.899 1.756-49.977 1.227-87.695-6.663-36.075-7.671-87.63-24.84-87.613-57.884 0-29.925 31.514-54.382 59.069-72.822 33.372-22.184 75.378-38.62 108.511-40.388 33.83-1.798 112.617-5.407 138.793 18.077 22.478 20.167 10.046 49.932-4.102 78.879zM9340.163 211.098c-13.932 25.666-15.085 32.826-39.416 53.31-25.852 21.762-51.405 23.855-85.785 26.318-29.882 2.09-49.841 1.027-88.06-6.103-36.266-6.869-94.677-20.869-94.659-53.913 0-29.925 34.171-55.249 61.978-73.325 34.197-22.119 78-40.02 111.137-42.122 33.813-2.14 121.622-7.813 147.798 15.67 22.478 20.165 3.839 51.252-12.993 80.165zM9748.353 210.692c-15.545 25.101-15.809 31.21-40.142 51.694-25.852 21.762-49.18 24.336-83.782 27.084-29.868 2.331-49.741.881-88.324-5.698-36.404-6.288-99.791-17.987-99.774-51.031 0-29.925 36.1-55.878 64.09-73.689 34.796-22.071 79.903-41.036 113.043-43.382 33.802-2.387 128.158-9.559 154.334 13.925 22.478 20.163-.666 52.208-19.445 81.097zM10156.762 210.396c-16.719 24.689-16.336 30.033-40.67 50.517-25.852 21.762-47.558 24.686-82.322 27.641-29.859 2.508-49.669.776-88.517-5.402-36.505-5.864-103.517-15.887-103.5-48.931 0-29.925 37.506-56.337 65.628-73.955 35.233-22.036 81.29-41.776 114.432-44.299 33.793-2.568 132.92-10.831 159.096 12.653 22.478 20.162-3.949 52.905-24.147 81.776zM10565.332 210.181c-17.574 24.388-16.72 29.175-41.054 49.659-25.852 21.762-46.379 24.941-81.26 28.048-29.852 2.636-49.616.698-88.657-5.187-36.579-5.556-106.23-14.359-106.213-47.403 0-29.925 38.528-56.67 66.748-74.147 35.55-22.012 82.299-42.316 115.442-44.968 33.788-2.699 136.389-11.757 162.565 11.727 22.478 20.161-6.34 53.413-27.571 82.271zM10974.023 210.026c-18.188 24.173-16.995 28.559-41.33 49.043-25.853 21.762-45.531 25.125-80.497 28.34-29.847 2.728-49.578.643-88.758-5.032-36.631-5.334-108.178-13.261-108.161-46.305 0-29.925 39.263-56.91 67.552-74.286 35.779-21.994 83.025-42.703 116.169-45.448 33.783-2.793 138.878-12.422 165.054 11.062 22.478 20.16-8.055 53.778-30.029 82.626zM11382.809 209.919c-18.614 24.023-17.187 28.132-41.522 48.616-25.852 21.762-44.943 25.251-79.967 28.542-29.844 2.792-49.552.605-88.828-4.925-36.668-5.18-109.53-12.5-109.513-45.544 0-29.925 39.773-57.076 68.111-74.382 35.936-21.981 83.527-42.972 116.672-45.78 33.78-2.859 140.605-12.884 166.781 10.6 22.478 20.16-9.246 54.031-31.734 82.873zM11791.671 209.85c-18.889 23.927-17.31 27.856-41.646 48.34-25.852 21.762-44.563 25.334-79.625 28.673-29.842 2.833-49.535.58-88.874-4.856-36.691-5.081-110.401-12.008-110.384-45.052 0-29.925 40.102-57.184 68.471-74.445 36.038-21.973 83.851-43.145 116.996-45.995 33.779-2.901 141.72-13.181 167.896 10.303 22.478 20.16-10.014 54.194-32.834 83.032zM12200.595 209.812c-19.039 23.874-17.378 27.705-41.714 48.189-25.852 21.762-44.355 25.379-79.438 28.744-29.84 2.856-49.525.567-88.898-4.817-36.704-5.027-110.879-11.74-110.862-44.784 0-29.925 40.282-57.242 68.668-74.478 36.095-21.969 84.029-43.24 117.175-46.113 33.777-2.924 142.33-13.344 168.506 10.14 22.478 20.16-10.435 54.283-33.437 83.119zM12609.572 209.8c-19.086 23.858-17.399 27.659-41.735 48.143-25.852 21.762-44.291 25.392-79.38 28.766-29.84 2.863-49.523.562-88.906-4.806-36.708-5.01-111.027-11.656-111.01-44.7 0-29.925 40.338-57.26 68.729-74.489 36.112-21.967 84.084-43.269 117.23-46.149 33.777-2.931 142.519-13.395 168.695 10.089 22.478 20.16-10.565 54.311-33.623 83.146zM13018.606 209.808c-19.038 23.874-17.397 27.735-41.733 48.219-25.852 21.762-44.345 25.392-79.427 28.758-29.841 2.856-49.546.556-88.9-4.846-36.693-5.049-110.884-11.752-110.867-44.796 0-29.925 40.27-57.277 68.655-74.514 36.095-21.968 84.058-43.235 117.204-46.108 33.777-2.924 142.351-13.326 168.527 10.158 22.478 20.16-10.458 54.293-33.459 83.129zM13427.72 209.833c-18.883 23.929-17.391 27.985-41.727 48.469-25.852 21.762-44.524 25.396-79.585 28.734-29.841 2.833-49.619.535-88.878-4.977-36.643-5.178-110.413-12.07-110.396-45.114 0-29.925 40.044-57.332 68.412-74.594 36.037-21.973 83.97-43.126 117.116-45.975 33.778-2.9 141.8-13.099 167.976 10.385 22.478 20.161-10.105 54.234-32.918 83.072zM13836.932 209.881c-18.592 24.031-17.38 28.452-41.716 48.936-25.852 21.762-44.856 25.4-79.877 28.687-29.844 2.789-49.757.497-88.84-5.221-36.55-5.42-109.533-12.664-109.516-45.708 0-29.925 39.623-57.434 67.958-74.744 35.929-21.981 83.806-42.921 116.952-45.726 33.78-2.855 140.772-12.674 166.948 10.81 22.478 20.16-9.447 54.124-31.909 82.966zM14246.267 209.956c-18.133 24.192-17.362 29.189-41.697 49.673-25.852 21.762-45.383 25.409-80.341 28.615-29.848 2.72-49.975.437-88.778-5.608-36.404-5.801-108.143-13.602-108.126-46.646 0-29.925 38.958-57.596 67.241-74.98 35.758-21.995 83.547-42.597 116.692-45.333 33.784-2.785 139.147-12.003 165.324 11.481 22.476 20.161-8.408 53.949-30.315 82.798zM14655.757 210.065c-17.462 24.428-17.337 30.269-41.671 50.753-25.852 21.762-46.152 25.421-81.018 28.507-29.853 2.62-50.293.349-88.687-6.172-36.19-6.359-106.111-14.973-106.094-48.017 0-29.925 37.985-57.833 66.192-75.327 35.509-22.015 83.169-42.123 116.313-44.758 33.789-2.682 136.772-11.022 162.949 12.462 22.475 20.161-6.888 53.694-27.984 82.552zM15065.437 210.218c-16.53 24.755-17.301 31.765-41.635 52.249-25.852 21.762-47.219 25.438-81.957 28.36-29.86 2.479-50.735.226-88.561-6.956-35.893-7.133-103.291-16.877-103.274-49.921 0-29.925 36.635-58.161 64.737-75.808 35.162-22.043 82.643-41.466 115.787-43.96 33.795-2.538 133.473-9.661 159.651 13.823 22.473 20.163-4.779 53.341-24.748 82.213zM15475.335 210.419c-15.298 25.187-17.253 33.743-41.586 54.227-25.852 21.762-48.63 25.46-83.198 28.164-29.871 2.295-51.319.065-88.396-7.992-35.5-8.155-99.565-19.391-99.548-52.434 0-29.926 34.853-58.596 62.814-76.445 34.705-22.078 81.95-40.596 115.092-42.905 33.804-2.349 129.116-7.862 155.296 15.622 22.471 20.164-1.992 52.874-20.474 81.763zM15885.443 210.667c-13.779 25.72-17.195 36.184-41.526 56.668-25.852 21.762-50.371 25.486-84.73 27.922-29.882 2.067-52.039-.134-88.19-9.269-35.017-9.417-94.968-22.494-94.951-55.537 0-29.926 32.652-59.132 60.441-77.228 34.14-22.124 81.094-39.526 114.235-41.605 33.815-2.116 123.74-5.643 149.921 17.841 22.469 20.165 1.447 52.297-15.2 81.208zM16295.686 210.946c-12.076 26.317-17.13 38.919-41.46 59.403-25.852 21.762-52.322 25.517-86.446 27.652-29.897 1.811-52.847-.358-87.961-10.702-34.474-10.832-89.814-25.972-89.797-59.015 0-29.926 30.185-59.733 57.781-78.108 33.508-22.173 80.134-38.323 113.274-40.146 33.827-1.854 117.713-3.154 143.896 20.329 22.465 20.167 5.302 51.651-9.287 80.587zM16705.938 211.226c-10.359 26.92-17.064 41.677-41.392 62.161-25.852 21.762-54.289 25.548-88.177 27.379-29.91 1.554-53.661-.583-87.73-12.146-33.926-12.257-84.618-29.477-84.601-62.521 0-29.925 27.698-60.338 55.1-78.993 32.87-22.224 79.167-37.113 112.305-38.676 33.839-1.591 111.638-.647 137.822 22.837 22.462 20.168 9.188 50.999-3.327 79.959zM17116.097 211.486c-8.771 27.477-17.003 44.227-41.33 64.711-25.852 21.762-56.108 25.577-89.778 27.127-29.923 1.316-54.414-.792-87.516-13.482-33.42-13.575-79.813-32.72-79.796-65.763 0-29.926 25.399-60.899 52.621-79.813 32.28-22.271 78.271-35.993 111.408-37.316 33.851-1.347 106.019 1.673 132.205 25.156 22.459 20.17 12.782 50.397 2.186 79.38zM17526.115 211.714c-7.375 27.967-16.949 46.47-41.275 66.954-25.852 21.762-57.707 25.601-91.185 26.905-29.934 1.106-55.076-.975-87.328-14.656-32.974-14.735-75.588-35.571-75.571-68.615 0-29.925 23.377-61.39 50.44-80.533 31.761-22.312 77.485-35.008 110.621-36.12 33.86-1.133 101.079 3.712 127.266 27.195 22.457 20.171 15.942 49.867 7.032 78.87zM17935.99 211.91c-6.176 28.388-16.903 48.396-41.228 68.88-25.852 21.762-59.081 25.622-92.394 26.714-29.944.927-55.644-1.132-87.166-15.664-32.592-15.731-71.96-38.02-71.943-71.063 0-29.926 21.64-61.814 48.567-81.153 31.317-22.347 76.81-34.161 109.945-35.093 33.869-.949 96.836 5.463 123.024 28.947 22.455 20.172 18.656 49.412 11.195 78.432zM18345.735 212.077c-5.154 28.746-16.864 50.037-41.187 70.521-25.852 21.762-60.252 25.641-93.425 26.552-29.951.773-56.128-1.266-87.028-16.524-32.266-16.579-68.867-40.106-68.85-73.15 0-29.925 20.16-62.174 46.971-81.679 30.937-22.378 76.234-33.441 109.368-34.219 33.876-.791 93.22 6.957 119.409 30.44 22.452 20.173 20.969 49.024 14.742 78.059zM18755.37 212.219c-4.283 29.052-16.83 51.435-41.153 71.919-25.852 21.762-61.249 25.657-94.302 26.414-29.959.643-56.541-1.381-86.91-17.256-31.99-17.302-66.235-41.884-66.218-74.927 0-29.926 18.9-62.481 45.613-82.129 30.613-22.403 75.743-32.827 108.876-33.473 33.883-.658 90.141 8.228 116.331 31.711 22.451 20.174 22.938 48.694 17.763 77.741zM19164.911 212.34c-3.541 29.312-16.802 52.627-41.124 73.111-25.852 21.762-62.098 25.67-95.05 26.296-29.964.531-56.892-1.478-86.81-17.88-31.753-17.918-63.989-43.398-63.972-76.442 0-29.925 17.825-62.742 44.454-82.512 30.337-22.424 75.325-32.303 108.457-32.838 33.888-.543 87.516 9.312 113.707 32.795 22.449 20.175 24.617 48.413 20.338 77.47zM19574.373 212.444c-2.908 29.534-16.777 53.644-41.099 74.128-25.852 21.762-62.824 25.681-95.688 26.195-29.97.437-57.193-1.561-86.725-18.412-31.551-18.444-62.073-44.692-62.056-77.736 0-29.925 16.908-62.966 43.465-82.838 30.102-22.444 74.969-31.857 108.1-32.296 33.893-.447 85.274 10.237 111.466 33.72 22.448 20.175 26.051 48.172 22.537 77.239zM19983.768 212.532c-2.367 29.725-16.757 54.514-41.078 74.998-25.852 21.762-63.444 25.69-96.234 26.109-29.974.355-57.449-1.632-86.652-18.868-31.378-18.893-60.435-45.797-60.418-78.84 0-29.926 16.124-63.157 42.62-83.118 29.901-22.459 74.664-31.475 107.795-31.832 33.896-.364 83.359 11.027 109.551 34.51 22.447 20.176 27.276 47.967 24.416 77.041zM20393.105 212.608c-1.905 29.886-16.739 55.255-41.06 75.739-25.852 21.762-63.973 25.699-96.699 26.036-29.978.286-57.669-1.693-86.59-19.257-31.231-19.276-59.038-46.74-59.021-79.783 0-29.926 15.456-63.32 41.899-83.356 29.73-22.473 74.403-31.149 107.534-31.437 33.9-.292 81.725 11.702 107.918 35.185 22.446 20.176 28.321 47.792 26.019 76.873zM20802.392 212.672c-1.512 30.024-16.724 55.887-41.044 76.371-25.852 21.762-64.424 25.706-97.096 25.973-29.981.227-57.855-1.744-86.537-19.587-31.106-19.603-57.848-47.543-57.831-80.586 0-29.926 14.886-63.459 41.285-83.56 29.583-22.484 74.182-30.871 107.312-31.1 33.902-.232 80.334 12.277 106.526 35.76 22.446 20.176 29.212 47.643 27.385 76.729zM21211.635 212.726c-1.178 30.142-16.711 56.423-41.031 76.907-25.852 21.762-64.806 25.712-97.432 25.92-29.984.177-58.013-1.788-86.492-19.867-31-19.88-56.838-48.224-56.821-81.267 0-29.926 14.403-63.577 40.763-83.732 29.46-22.494 73.994-30.636 107.124-30.814 33.905-.181 79.154 12.763 105.347 36.246 22.445 20.177 29.966 47.516 28.542 76.607zM21620.84 212.772c-.898 30.24-16.701 56.874-41.02 77.358-25.852 21.762-65.128 25.717-97.715 25.876-29.986.134-58.146-1.826-86.454-20.104-30.91-20.113-55.989-48.797-55.972-81.84 0-29.926 13.996-63.676 40.325-83.877 29.355-22.503 73.836-30.438 106.966-30.574 33.906-.138 78.16 13.173 104.353 36.656 22.445 20.178 30.602 47.41 29.517 76.505zM22030.011 212.81c-.665 30.322-16.692 57.25-41.012 77.734-25.852 21.762-65.395 25.721-97.95 25.838-29.988.1-58.257-1.856-86.423-20.3-30.835-20.308-55.281-49.275-55.264-82.318 0-29.926 13.658-63.758 39.96-83.997 29.269-22.51 73.704-30.274 106.834-30.374 33.908-.102 77.333 13.515 103.526 36.998 22.444 20.177 31.131 47.321 30.329 76.419zM22439.151 212.842c-.472 30.389-16.684 57.558-41.004 78.042-25.852 21.762-65.615 25.724-98.144 25.808-29.989.07-58.348-1.881-86.397-20.462-30.774-20.467-54.7-49.667-54.683-82.71 0-29.926 13.38-63.826 39.66-84.097 29.197-22.515 73.596-30.138 106.725-30.209 33.91-.072 76.654 13.795 102.847 37.278 22.444 20.178 31.566 47.249 30.996 76.35zM22848.263 212.867c-.317 30.444-16.678 57.806-40.997 78.29-25.852 21.762-65.792 25.727-98.3 25.783-29.99.048-58.421-1.901-86.376-20.591-30.725-20.596-54.233-49.983-54.216-83.026 0-29.926 13.156-63.88 39.419-84.176 29.14-22.52 73.509-30.029 106.638-30.077 33.911-.049 76.107 14.021 102.301 37.504 22.443 20.178 31.915 47.19 31.531 76.293zM23257.351 212.887c-.197 30.486-16.673 57.999-40.993 78.483-25.852 21.762-65.93 25.729-98.421 25.764-29.991.03-58.478-1.917-86.359-20.693-30.687-20.695-53.869-50.228-53.852-83.271 0-29.926 12.981-63.923 39.231-84.238 29.095-22.523 73.441-29.944 106.57-29.974 33.912-.03 75.681 14.197 101.875 37.68 22.443 20.178 32.187 47.144 31.949 76.249zM23666.416 212.901c-.107 30.518-16.67 58.143-40.989 78.627-25.852 21.762-66.032 25.731-98.511 25.75-29.992.017-58.521-1.928-86.348-20.768-30.658-20.769-53.598-50.411-53.581-83.454 0-29.926 12.852-63.954 39.091-84.284 29.062-22.526 73.391-29.881 106.52-29.898 33.913-.016 75.365 14.328 101.558 37.811 22.444 20.178 32.391 47.11 32.26 76.216zM24075.461 212.911c-.047 30.539-16.668 58.242-40.987 78.726-25.852 21.762-66.102 25.732-98.573 25.74-29.992.007-58.55-1.937-86.339-20.82-30.639-20.82-53.413-50.536-53.396-83.579 0-29.926 12.763-63.975 38.996-84.316 29.039-22.527 73.356-29.838 106.485-29.845 33.913-.007 75.148 14.417 101.342 37.9 22.443 20.178 32.528 47.087 32.472 76.194zM24484.487 212.917c-.012 30.551-16.667 58.298-40.986 78.782-25.852 21.762-66.143 25.733-98.608 25.735-29.993.001-58.567-1.942-86.335-20.85-30.627-20.849-53.306-50.608-53.289-83.651 0-29.926 12.712-63.988 38.941-84.334 29.026-22.528 73.336-29.813 106.465-29.814 33.913-.002 75.023 14.468 101.217 37.951 22.443 20.178 32.608 47.073 32.595 76.181zM24893.495 212.919c0 30.555-16.666 58.316-40.985 78.8-25.852 21.762-66.156 25.733-98.62 25.733-29.993 0-58.572-1.943-86.333-20.859-30.624-20.859-53.272-50.631-53.255-83.674 0-29.926 12.696-63.992 38.923-84.34 29.022-22.529 73.33-29.805 106.459-29.805 33.913 0 74.983 14.485 101.177 37.968 22.443 20.178 32.634 47.069 32.634 76.177z" fill="#d4f7ff"/></svg>